<svg xmlns="http://www.w3.org/2000/svg" viewBox="0 0 594.63 301.74"><defs><style>.cls-1{fill:#424242;}.cls-2{fill:#858585;}.cls-3{fill:#eae861;}.cls-4{fill:#498470;}.cls-5{fill:#9acf94;}.cls-6{fill:#fefefe;}.cls-7{fill:#a0d1e1;}</style></defs><g id="Capa_2" data-name="Capa 2"><g id="Capa_1-2" data-name="Capa 1"><path d="M113.29.24c12.28,1.24,21.53,7.26,27.31,18.09a33.45,33.45,0,0,1-5.92,40c-9.2,9.19-20.47,12.3-33,9S80.69,55.62,77.32,43A34.1,34.1,0,0,1,104.26.61a8.65,8.65,0,0,0,3-.61h.26c.55.27,1.14.07,1.71.14h2.49A5,5,0,0,1,113.29.24Z"/><path class="cls-1" d="M111.72.23H109C109,.17,109,.12,109,.07S109,0,109.07,0h2.63q.12.06.09.15C111.77.2,111.75.23,111.72.23Z"/><path class="cls-2" d="M111.72.23a.58.58,0,0,1,0-.23h1.57a.4.4,0,0,0,0,.24Z"/><path class="cls-2" d="M109.07,0a.85.85,0,0,1,0,.23c-.51-.09-1.1.34-1.55-.23Z"/><path d="M104.26,114.63l14.6-20.53c1.57-2.21,3.11-4.44,4.71-6.63a16,16,0,0,1,24.89-1c9.81,11,19.67,22,29.3,33.14,11.44,13.26,22.87,26.52,33.28,40.61.55.74,1,1.54,1.62,2.24,4.46,5.28,5.85,11.67,6.78,18.27a110.11,110.11,0,0,1,.86,24.47,100.53,100.53,0,0,1-9.68,36.13q-19.59,40.32-62,55.05a98.29,98.29,0,0,1-36,5.31c-5.77-.22-11.54-.05-17.31-.63a103.75,103.75,0,0,1-34.93-9.64,104.83,104.83,0,0,1-49-47.87,100.55,100.55,0,0,1-10.6-36,161.92,161.92,0,0,1-.45-25.3,28.64,28.64,0,0,1,5.62-15.69C11.2,159.4,17.05,152.72,23,146.12c9.2-10.21,18.68-20.16,28.31-30q7-7.08,13.93-14.13a15.78,15.78,0,0,1,21-1.45C92.28,105.19,98.21,109.9,104.26,114.63Z"/><path d="M450.58,194.41c0-2.68,0-5.35,0-8,0-1-.26-1.21-1.18-1a10.25,10.25,0,0,1-2.21.32,5.34,5.34,0,0,1-5.1-2.85,8.26,8.26,0,0,1-.42-8.15c1.34-2.94,3.57-3.88,7.32-3.31,1.57.24,1.58.24,1.57-1.39s-.09-3-.08-4.47c0-4.13,2.39-6.69,6.51-7.14a12.3,12.3,0,0,1,4.68.29,6.37,6.37,0,0,1,5,6.52c0,1.66-.05,3.32-.18,5-.08,1.1.09,1.53,1.39,1.31A25.52,25.52,0,0,1,474,171c5.38.39,8.16,6.61,5.58,11.31a7,7,0,0,1-7.24,3.71c-1.65-.14-3.3-.37-4.95-.61-.69-.11-.91,0-.9.77,0,3.94,0,7.89,0,11.83,0,2.35,1.6,3.29,3.69,2.25,1.31-.66,2.35-1.81,3.91-2.06,4.57-.74,8,2.23,8.39,7.13a9.7,9.7,0,0,1-3.08,7.77c-5.08,5.17-18.73,6.87-25.12-1.13-2.82-3.53-3.73-7.62-3.75-12Z"/><path d="M420.17,217.37c-7.11,0-13.38-2.08-18.05-7.72-4.33-5.23-5.46-11.41-4.87-18,.61-6.86,3.51-12.49,9.31-16.4,5.05-3.4,10.74-4.18,16.68-3.74A25.8,25.8,0,0,1,433.48,174c4.56,2.38,6.19,6.54,4.45,11.38a6.69,6.69,0,0,1-5.79,4.66,17.61,17.61,0,0,1-6.88-.64,20.32,20.32,0,0,0-10.75-.16c-2.26.62-3.23,1.81-3.36,3.82a4.33,4.33,0,0,0,2.83,4.69,14.28,14.28,0,0,0,9.13.49c2-.42,3.81-1.26,5.82-1.51,4.52-.55,7.84,1,9.39,4.56a9.44,9.44,0,0,1-2.56,11.3c-3.93,3.3-8.65,4.41-13.62,4.76C421.48,217.4,420.82,217.37,420.17,217.37Z"/><path d="M529.15,217.15c-7.07,0-11.64-3.66-14.49-9.8-2.3-5-3.73-10.24-5.58-15.37-1.14-3.16-2.28-6.33-3.26-9.54-1.39-4.59.62-8.82,4.68-10.16,4.86-1.61,9,.34,10.72,5.14,2.23,6.34,4.35,12.71,6.52,19.07a13.77,13.77,0,0,0,3.16,5.81,4.05,4.05,0,0,0,4.72.78,3.63,3.63,0,0,0,2.33-4,15.36,15.36,0,0,0-3.59-8.43c-1-1.15-1.92-2.28-2.79-3.48a9.76,9.76,0,0,1-.86-10.43c1.6-3.44,4.72-4.73,8.37-4.88,6.75-.28,11.22,4.67,10.32,11.41-.55,4.1-2.07,7.93-3.31,11.84-1.52,4.82-2.81,9.73-5,14.33C538.53,214.89,535.08,217.13,529.15,217.15Z"/><path d="M336.11,194.69c0-4.59,0-9.19,0-13.79,0-6.65,5.06-10.27,11.73-8.4,3.15.88,5.11,4,5.22,7.72,0,.43,0,.87,0,1.31s.06.77.63.75,1,.06,1.05-.65a12.24,12.24,0,0,1,.32-1.81,10.84,10.84,0,0,1,13.45-7.57c4,1.17,6.41,5,6.1,9.6a10.55,10.55,0,0,1-1.33,4.88,8.49,8.49,0,0,1-14.31.39c-1-1.43-2.13-1.2-3.39-1a2.62,2.62,0,0,0-2.3,2.22,11.45,11.45,0,0,0-.21,2.34c0,6.13,0,12.27,0,18.4,0,3.71-1.87,6.47-5,7.57-3.62,1.3-8,.32-10.14-2.27a8.3,8.3,0,0,1-1.84-5.48Z"/><path d="M502,194.39c0,4.82,0,9.64,0,14.46,0,3.29-1,6.08-4.24,7.51a9.33,9.33,0,0,1-8.26-.15c-2.77-1.39-3.71-4-3.72-6.91-.06-9.85,0-19.71,0-29.57a9.09,9.09,0,0,1,1.15-4.65c1.56-2.62,4.07-3.28,6.86-3.31,5.2-.07,8.12,2.71,8.21,7.91C502,184.58,502,189.49,502,194.39Z"/><path d="M377.9,194.46q0-7.29,0-14.59c0-3,.71-5.69,3.54-7.1a9.6,9.6,0,0,1,9.44.24c2.33,1.35,3.15,3.69,3.16,6.27,0,10.08.06,20.15,0,30.23,0,5.39-4.45,8.6-10.1,7.51a7.16,7.16,0,0,1-6-7.45C377.88,204.53,377.9,199.5,377.9,194.46Z"/><path d="M377.34,162c0-5.13,3.32-8.26,8.74-8.24s8.41,3,8.43,8.18-3.14,8.16-8.62,8.12S377.33,167.08,377.34,162Z"/><path d="M494,170.05c-4.73,0-7.84-2.12-8.64-5.78-1.46-6.65,3.26-11.46,10.16-10.43,3,.46,5.33,1.84,6.27,4.82,1,3.18.89,6.32-1.45,9C498.66,169.64,496.26,170,494,170.05Z"/><path class="cls-3" d="M127.47,34.33A17.09,17.09,0,1,1,110.34,17.2,17.14,17.14,0,0,1,127.47,34.33Z"/><path d="M284,200.53q-5.36-15.37-10.73-30.76a37.61,37.61,0,0,0-5.36-10.87,12.08,12.08,0,0,0-7.78-4.66,23,23,0,0,0-5.49-.21,13.12,13.12,0,0,0-10.07,5.38,25.19,25.19,0,0,0-3.61,6.79c-3.87,10.85-7.67,21.72-11.55,32.56-.8,2.23-1.32,4.54-2.1,6.78v1.05a2,2,0,0,1,0,2.1v1.05c.48.19.35.67.44,1a7.92,7.92,0,0,0,5.61,5.87A14.69,14.69,0,0,0,241,217c4.2-.89,6.29-3.2,7-7.45a14.28,14.28,0,0,0-.75-6.32c-.5-1.72,0-2.39,1.75-2.39h15c1.65,0,2.12.58,1.78,2.22-.19.89-.53,1.76-.68,2.66-.83,4.92.67,9.47,5.95,11a15,15,0,0,0,8.66,0,7.71,7.71,0,0,0,5.79-7.42A21.84,21.84,0,0,0,284,200.53Zm-33.72-11.86c1-3.18,2-6.29,2.94-9.41.52-1.66,1-3.33,1.59-5a1.67,1.67,0,0,1,1.73-1.33c.93,0,1.36.61,1.62,1.44,1.44,4.58,2.91,9.14,4.36,13.72a5.26,5.26,0,0,1,.1.56Z"/><path class="cls-4" d="M21,213.76c15.44.4,29.74,3.93,42.47,12.62a61.74,61.74,0,0,1,18.7,20.31,2.68,2.68,0,0,1,.36,2A102.7,102.7,0,0,0,81,270.73a85.28,85.28,0,0,0,.71,8.75c.23,1.68.17,1.7-1.42,1.22a88.59,88.59,0,0,1-60.78-64.79C18.84,213.22,19.08,213.81,21,213.76Z"/><path class="cls-4" d="M137.72,281.7a50.13,50.13,0,0,1,.81-6.85,75.31,75.31,0,0,1,7.57-23.77c7.37-13.85,18.91-22.19,34.05-25.77a73.29,73.29,0,0,1,18-1.87c1,0,1.14.29.82,1.19a88.83,88.83,0,0,1-59.71,56.67Z"/><path class="cls-5" d="M88.93,226.35a82.44,82.44,0,0,0-10.12-10.09c-11-9.13-23.73-14.68-37.68-17.54a101.26,101.26,0,0,0-22.57-2c-1,0-1.32-.21-1.3-1.26a95.24,95.24,0,0,1,1.27-14.11,1.29,1.29,0,0,1,1.3-1.28c29-4.38,54.18,3.44,75.71,23.26,1.19,1.1,2.26,2.33,3.41,3.46.4.4.53.7.17,1.23a107.61,107.61,0,0,0-10,18.14C89.13,226.2,89,226.25,88.93,226.35Z"/><path class="cls-6" d="M91.44,175.72c-19.42-10.2-40.5-12.91-61.95-14.23-.07-.39.33-.53.55-.76l29.25-29.44q7.92-8,15.79-16a1.23,1.23,0,0,1,1.85-.25c3.84,2.31,7.09,5.1,8.27,9.67,1,3.76.07,7.26-1.54,10.63a37.31,37.31,0,0,1-8.5,11.21,1.09,1.09,0,0,0-.22,1.7q8,13.13,16,26.27C91.14,174.9,91.54,175.2,91.44,175.72Z"/><path class="cls-6" d="M128.36,123.68C146.19,125.76,150.21,138,149.2,148c-.55.08-.85-.37-1.2-.63q-16.92-12.3-33.81-24.61c-.69-.51-.94-.81-.34-1.68q9.5-13.74,18.88-27.55a1.17,1.17,0,0,1,1.7-.51,14.53,14.53,0,0,1,5.26,3.34c2.54,2.71,2.75,5.9,1.77,9.29-1.39,4.82-4.38,8.68-7.57,12.41A70,70,0,0,1,128.36,123.68Z"/><path class="cls-7" d="M166.9,211.32a79.37,79.37,0,0,0-14.14,7.27,75.38,75.38,0,0,0-10.83,9c-.39-.73.14-1.25.45-1.79a29.4,29.4,0,0,0,2.43-5.51,7.74,7.74,0,0,0,.43-2.18c.1-2.94-1.4-4.58-4.31-4.85a36.55,36.55,0,0,0-9.51.71c-.78.13-1.72.7-2.35,0s.2-1.39.42-2.06c1.17-3.43.15-5.84-3.17-7.39-.43-.2-.92-.3-1.18-.77A79.33,79.33,0,0,1,139,192.77a46.87,46.87,0,0,1,6.12-3.49,63,63,0,0,1,10.46.13,6.8,6.8,0,0,1,.9.17c2,.54,2.22,1.29,1.06,3-2,2.92-4.27,5.64-6,8.75-1.58,2.86.25,4.57,2.63,4.7a54.51,54.51,0,0,1,7.42.73,24.4,24.4,0,0,0,4.88.9,1.41,1.41,0,0,1,1.43,1.15A2.27,2.27,0,0,1,166.9,211.32Z"/><path class="cls-7" d="M106,230.81a80.91,80.91,0,0,1,14.42-22.11,2.58,2.58,0,0,1,3,.69c.83.8.48,1.78,0,2.68a35.89,35.89,0,0,1-2.46,4.19,3,3,0,0,0-.6,2.34c.36,1.59,1.45,2.31,3.27,2,2.77-.43,5.53-.92,8.29-1.37a32.25,32.25,0,0,1,6.65-.65c1.46.07,1.73.45,1.15,1.8a29.84,29.84,0,0,1-2.26,4.3,16.48,16.48,0,0,0-1.12,2.22,4.42,4.42,0,0,0,.66,5.13,1.69,1.69,0,0,1,.39.82,82.19,82.19,0,0,0-9.11,15.49c-.31-.24-.31-.6-.4-.94a5.13,5.13,0,0,0-5.07-3.94,12.53,12.53,0,0,0-3.5.48,11.9,11.9,0,0,1-3.08.58,2.71,2.71,0,0,1-3-3.36,28.22,28.22,0,0,1,1.14-4.31,15.89,15.89,0,0,0,.63-7.62c-.47-2.49-2.37-3.28-4.44-1.78-1.16.85-2.16,1.92-3.29,2.81C106.91,230.6,106.59,231.11,106,230.81Z"/><path class="cls-7" d="M157.36,184a74.1,74.1,0,0,1,20-4.4c.2.6-.21,1-.5,1.41a2.54,2.54,0,0,0-.37,2.82,2.69,2.69,0,0,0,2.71,1.45,66.15,66.15,0,0,1,8.79.26,5.45,5.45,0,0,1,2.13.61c1.1.65,1.16,1.15.42,2.2-1.83,2.57-3.74,5.07-5.44,7.73a14.39,14.39,0,0,0-1.11,2.09c-.89,2,0,3.54,2.14,3.92,1.86.32,3.75.28,5.62.51A29.81,29.81,0,0,1,195,203a16.52,16.52,0,0,0,3.85.67c1.59,0,2.17,1.26,1.39,2.59a121,121,0,0,0-14,.54c-3.78.43-7.49,1.21-11.21,1.93a1.09,1.09,0,0,1-.4-.8,6.33,6.33,0,0,0-4.35-4.7,32.93,32.93,0,0,0-9.37-1.83,12.1,12.1,0,0,1-2.08-.28c-.82-.19-1-.65-.49-1.3a16.56,16.56,0,0,1,2-2.24,41.72,41.72,0,0,0,4-4,4.67,4.67,0,0,0-.62-7,12.39,12.39,0,0,0-5-2C158.34,184.48,157.73,184.48,157.36,184Z"/><path class="cls-7" d="M98.34,259.94a79.93,79.93,0,0,1,3.87-19.42,46.2,46.2,0,0,0,4.58-3.06c.42-.33.91-.89,1.48-.54s.21,1,.15,1.47c-.2,1.52-.45,3-.66,4.55a11.6,11.6,0,0,0,.18,3.77c.49,2.63,2.71,4,5.63,3.64a15.63,15.63,0,0,0,2.66-.72,19.32,19.32,0,0,1,3.8-1,2.94,2.94,0,0,1,3.55,3.4,4.59,4.59,0,0,1-.16.9c-.67,2.37-.73,4.66.84,6.75a149.88,149.88,0,0,0-3.12,15c-.09.09-.16.2-.25.3-.38.48-.79,1.12-1.43,1s-.57-.9-.76-1.41c-.45-1.18-.68-2.43-1.18-3.61-1.06-2.55-3-3.41-5.58-2.4-1.18.47-2.28,1.1-3.42,1.66-.55.27-1.08.57-1.64.81-2.86,1.2-4.63.11-5-3a40.81,40.81,0,0,0-.5-4.68A4.19,4.19,0,0,0,98.34,259.94Z"/><path class="cls-6" d="M200.28,206.3c.29-1.82-.33-2.51-2.18-2.27a3.11,3.11,0,0,1-1.63-.22c-2.19-.84-4.53-.84-6.82-1.13-1.2-.15-2.43-.18-3.64-.29a2.85,2.85,0,0,1-2.46-4.07,29.33,29.33,0,0,1,4.2-6.62c1-1.35,1.74-2.94,3-4.11.43-.4,0-.62-.2-.84a4.35,4.35,0,0,0-2.53-.92,59.76,59.76,0,0,0-8.77-.22,3,3,0,0,1-3.1-1.7c-.67-1.31-.18-2.35.62-3.37.24-.31.42-.66.63-1a52.68,52.68,0,0,1,8.13-.5c.3.56.83.36,1.29.4a27.31,27.31,0,0,1,7.95,1.52,9.39,9.39,0,0,1,2.29,1.24,5.28,5.28,0,0,1,.68,8.07c-1.64,1.75-3.39,3.41-5.08,5.12a2.57,2.57,0,0,0-.92,1.28c1.34.15,2.67.21,4,.37a35.26,35.26,0,0,1,6.42,1.28,2.47,2.47,0,0,1,1.25.67c.12,2.05-.24,4.06-.32,6.09,0,1-.33,1.63-1.52,1.31A6.88,6.88,0,0,0,200.28,206.3Z"/><path class="cls-6" d="M157.36,184c2.12.48,4.29.8,6.16,2a5.09,5.09,0,0,1,.81,8.35c-1.87,1.82-3.71,3.69-5.55,5.54-.2.21-.55.4-.44.74s.52.22.8.26c2.93.41,5.9.48,8.77,1.27a14,14,0,0,1,4.35,1.74,5.77,5.77,0,0,1,2.82,4.89l-8.18,2.55c.08-.16.16-.31.23-.47,1-2.29.59-3-1.87-2.91-1.4.05-2.59-.68-3.93-.88-2.46-.37-4.94-.48-7.41-.7-2-.18-2.92-.85-3.4-2.47a2.88,2.88,0,0,1,.4-2.12c1.06-2.52,2.83-4.6,4.41-6.79a22.18,22.18,0,0,1,2.56-3.47c.67-.63,0-.94-.43-1.16a8,8,0,0,0-3.79-.81c-2.4-.07-4.81,0-7.21,0-.47,0-1,.15-1.38-.23A64,64,0,0,1,157.36,184Z"/><path class="cls-6" d="M124.26,259.69c-1.87-1.45-1.86-3.41-1.47-5.46.1-.56.24-1.11.35-1.67.54-2.6-1-4.14-3.56-3.5-1.77.44-3.51,1-5.29,1.48-3.79,1-6.34-.87-6.84-4.7-.35-2.75.33-5.36.74-8,0-.25.06-.5.11-1-1.9,1.23-3.45,2.65-5.3,3.6-.26.14-.49.44-.79.08a58.3,58.3,0,0,1,3.74-9.71c1.69-.95,2.91-2.48,4.43-3.64a3,3,0,0,1,5,2.13,18.47,18.47,0,0,1-.94,8.63,26.56,26.56,0,0,0-.85,3c-.43,2,.65,3.32,2.71,3.25a32.32,32.32,0,0,0,4.35-.91c1.83-.3,3.66-.42,5.28.79a4.9,4.9,0,0,1,2.31,4.29C126.78,252.09,125.4,255.85,124.26,259.69Z"/><path class="cls-6" d="M137.38,232.88c-2-1.78-2.41-3.41-1.44-5.95.76-2,2.11-3.62,3-5.54.16-.36.35-.71.5-1.07.53-1.3.47-1.39-.9-1.39-3.82,0-7.52.91-11.26,1.47-1.38.21-2.75.46-4.13.65a2.47,2.47,0,0,1-2.69-1.22,3,3,0,0,1-.06-3.34c.86-1.37,1.76-2.71,2.52-4.14,1.24-2.33.87-3-1.73-3.58a5,5,0,0,0-.78-.07,36.22,36.22,0,0,1,4.77-5,18.51,18.51,0,0,1,2.07.81,5.32,5.32,0,0,1,2.87,6.59c-.18.68-.5,1.31-.73,2-.09.24-.25.57-.16.73s.55.16.84.12c1.68-.28,3.35-.6,5-.86a22.13,22.13,0,0,1,6.5-.09c3,.43,4.62,3,3.91,6.21a24.68,24.68,0,0,1-2.71,6.65,5.8,5.8,0,0,0-.83,1.76Z"/><path class="cls-6" d="M98.34,259.94c1.31-.48,2,.5,2.52,1.31A7.27,7.27,0,0,1,102,265c.08,1.21.14,2.43.28,3.65.27,2.36,2,3.2,4.45,2.12,1.52-.68,3-1.49,4.46-2.23a5.62,5.62,0,0,1,2.76-.68,3.58,3.58,0,0,1,3.73,2.53c.35.89.62,1.81.92,2.72s.58,1.81.88,2.74c.72-.17.92-1.08,1.69-1.14l-.81,7.36c-.75,1.06-1.78,1-2.81.62a5.08,5.08,0,0,1-3.37-3.4,25.09,25.09,0,0,1-1.3-4.73,33.59,33.59,0,0,0-5.53,2.53,15.67,15.67,0,0,1-5.08,2,3.15,3.15,0,0,1-3.43-1,59,59,0,0,1-.77-9.38A71.5,71.5,0,0,1,98.34,259.94Z"/><path class="cls-7" d="M203.41,199a43.86,43.86,0,0,0-11.59-1.87c-.26,0-.57,0-.68-.27s.15-.57.36-.79c1.79-1.8,3.56-3.63,5.39-5.39,3.36-3.22,2.49-7.57-1.89-9.27a25.44,25.44,0,0,0-9.1-1.6c-.86,0-.76-.26-.36-.76a87.09,87.09,0,0,1,15.79,1.28c.59.1.76.37.85.92A80,80,0,0,1,203.41,199Z"/><path class="cls-7" d="M98.81,278.1c2.3,1.44,4.49.63,6.57-.43a64.8,64.8,0,0,1,8-3.74c-.38,2.14.65,3.92,1.27,5.76s3.32,3.84,5.65,2.35c0,2.41,0,2.46-2.3,2.51a92.23,92.23,0,0,1-17.64-1.24c-.64-.11-1-.32-1.07-1.05A32.15,32.15,0,0,1,98.81,278.1Z"/><path d="M331.68,179.65c0-4.11-2.45-7-6.25-7.48a14.87,14.87,0,0,0-3.4-.06,6.89,6.89,0,0,0-6.5,5.83c-.36,1.74-.06,3.5-.22,5.24v1.42a2.25,2.25,0,0,1-.19-1.42c-.46-5.45-3.69-9.37-8.69-10.54a14.55,14.55,0,0,0-17.09,9.05,28.66,28.66,0,0,0-.5,18.8,14.32,14.32,0,0,0,9.42,9.69c6.57,2.24,15,.51,16.35-8.35.1-.6.46-.62.94-.64.7,0,.63.41.63.86,0,2.41,0,4.82,0,7.22a7.37,7.37,0,0,1-2,5c-2.36,2.48-5.8,3.11-9.45,1.66-1.58-.63-3.11-1.41-4.66-2.1a8,8,0,0,0-10.12,2.75,9.24,9.24,0,0,0,.92,12.23,18.26,18.26,0,0,0,6.35,4.08c4.75,2,9.74,2.21,14.81,1.86,9.47-.64,15.82-5.77,18.33-14.9a41.42,41.42,0,0,0,1.45-10.9C331.77,199.18,331.72,189.42,331.68,179.65Zm-18.41,14.89a12.39,12.39,0,0,1-4.76.75,9.46,9.46,0,0,1-3.35-.45,4,4,0,0,1-3-4.5c.09-2.13,1.05-3.25,3.32-3.73a15.41,15.41,0,0,1,7.27.21,3.42,3.42,0,0,1,2.84,3.44C315.73,192.39,315,193.77,313.27,194.54Z"/><path d="M594.22,189.14c-1.4-8-5.54-13.79-13.5-16.33a26.7,26.7,0,0,0-11.42-.94c-7.33.88-12.94,4.43-16.33,11s-3.35,13.32-1.39,20.17,6.66,11.36,13.59,13.29a29.08,29.08,0,0,0,15.81-.14,17.07,17.07,0,0,0,11.81-10.81,34.27,34.27,0,0,0,1.43-16.28ZM584,194.29a4.05,4.05,0,0,1-3,2.52,30.19,30.19,0,0,1-8.57.89,31.37,31.37,0,0,1-8.31-.82,4.22,4.22,0,0,1-3.27-2.73,3.72,3.72,0,0,1,2.59-4.86,19.47,19.47,0,0,1,6.2-.93c3.66-.09,7.35-.22,11,.66C583.58,189.76,584.84,191.81,584,194.29Z"/></g></g></svg>