<svg xmlns="http://www.w3.org/2000/svg" viewBox="0 0 463.14 468.56"><defs><style>.cls-1{fill:#1a130b;}.cls-2{fill:#48836d;}.cls-3{fill:#a5ce90;}.cls-4{fill:#fefefe;}.cls-5{fill:#fdfdfd;}.cls-6{fill:#aed7e8;}.cls-7{fill:#fcfdfd;}.cls-8{fill:#fcfcfd;}.cls-9{fill:#acd3e3;}.cls-10{fill:#add3e3;}.cls-11{fill:#eee654;}</style></defs><g id="Capa_2" data-name="Capa 2"><g id="Capa_1-2" data-name="Capa 1"><path class="cls-1" d="M230.17,345.44c-32.56.51-61-9.22-84.92-30.89-25.77-23.36-38.37-52.64-40.31-87.46-1.16-20.77,5-37.12,19.2-52,18-19,35.64-38.3,54.15-56.78,8.71-8.69,17.77-9.19,27.39-1.71,5.06,3.94,10.21,7.78,15.08,11.95,2.93,2.5,4.51,2,6.57-1.08,5.74-8.49,11.68-16.86,17.72-25.15,9.06-12.42,21.45-13,31.68-1.57,21.19,23.71,41.56,48.14,62.45,72.09C355,190.94,359.51,211.34,357.5,234c-5,56.44-43.9,99.44-99.49,109.9C248.77,345.65,239.26,347,230.17,345.44Z"/><path class="cls-1" d="M230.57,78.35c-21.85-.47-38.41-17.81-38.1-39.87A38.79,38.79,0,0,1,232.07,0c22.54.57,39.12,18.26,38.53,41.13C270.06,62.12,252.1,78.82,230.57,78.35Z"/><path class="cls-2" d="M199.49,288c-2.26,9.59-1.5,20.31-1.19,31.06.12,4.43-3.6,1.94-5.47,1.31a98.07,98.07,0,0,1-42-27.49A103.86,103.86,0,0,1,128,251.58c-1.26-4.29-1.55-7.82,4.7-7.19,26,2.62,48.8,11.21,64,34.05C199.57,282.74,199.53,282.77,199.49,288Z"/><path class="cls-2" d="M262.85,318.37c.19-31,26-59.16,56.28-61.56,4.41-.34,10.42-4.39,12.89-.09s-2.28,9.43-4.56,13.85q-19.23,37.29-59.06,50.77C264.72,322.6,262.32,322.91,262.85,318.37Z"/><path class="cls-3" d="M206.72,258.85a95.65,95.65,0,0,0-53.17-30.75c-7.52-1.56-15.1-3.06-22.8-2.43-6,.5-6.79-2.2-6.2-7.27,1.41-12.28,2-13.36,14.56-13.75q43.42-1.34,75.51,28.21c3.36,3.1,4.24,5.55,1.43,9.63C212.62,247.48,210,253,206.72,258.85Z"/><path class="cls-4" d="M211.14,202.31c-24-12-47.6-15.49-71.71-16.86-.87-1.44.29-2.25,1.15-3.12,15.87-16,31.88-31.88,47.53-48.09,3.36-3.48,5.68-3.06,8.88-.45,7.57,6.18,9.53,16.83,1.73,25.18-8,8.56-6.16,14.82-.34,22.72C202.72,187.59,206.15,194.16,211.14,202.31Z"/><path class="cls-5" d="M276.34,170.52c-13.79-10-26.52-19.35-39.37-28.52-2.74-2-1.93-3.56-.46-5.68,6.4-9.25,12.72-18.57,19.1-27.84,1-1.41,1.81-3.39,4.16-2.19,3.45,1.76,6.86,3.64,7.82,7.85,1,4.5-.21,8.61-2.42,12.5-2.92,5.16-6.88,9.51-11.57,14.36C268.67,144.49,277.57,152.71,276.34,170.52Z"/><path class="cls-6" d="M248.74,233.43a72.16,72.16,0,0,1,23.32-16.64c1.6.43,3-.28,4.45-.76,3.47-1.14,7-.7,9.06,2.19,1.94,2.7-.66,5.23-2.09,7.6-4.34,7.18-4,7.19,3.89,9.36,3.47.95,10.38-1.59,9.34,6.43a111.23,111.23,0,0,0-27.52,17c-.17-.18-.49-.37-.5-.56-.23-10.54-.22-10.57-11.05-11.92-2.76-.35-5.1-1.24-5.34-4.37S249.87,236.23,248.74,233.43Z"/><path class="cls-6" d="M228.46,261.2a65.68,65.68,0,0,1,15.68-23c4.13,1.66,2.91,4.83,2.11,7.78-.92,3.35.15,4.81,3.71,4.68,4.77-.18,10.43-3.35,14.07.07,3.86,3.62-2.37,8.36-1.34,13a11,11,0,0,1,0,2.3l-10.5,17.14c-3.44-.53-6.36-2.58-10.2-2.31-7.26.52-9.2-1.7-7.39-9C236.16,265.69,235,262.12,228.46,261.2Z"/><path class="cls-6" d="M287.36,210.41c6.42-2.72,13.05-4.49,20.09-4.33,2,4.83,6.2,5.2,10.69,5.64,5.64.55,6.46,2.56,4.23,7.6-1.34,3-5.43,5.39-3,9.43,1.28,2.14,12.92,2.95,15.89,1.35.87-.47,1.54-1.3,2.68-1,1.22,5.29.14,8.21-6.3,7.53-9.18-1-18.17,1.16-27.15,2.84-2.87-4.94-7.71-6.25-12.87-7.06-4.55-.72-7.18-3.57-3.39-7.14C294.4,219.4,291.2,215.12,287.36,210.41Z"/><path class="cls-6" d="M247.26,296.74l-4.41,24.57A4.85,4.85,0,0,1,241,319c-3.78-9-3.8-9.13-13.23-7.42-4.21.76-6.16-1-7.17-4.84-.76-2.9-.14-6.25-2.67-8.59A65.58,65.58,0,0,1,223,273.61c4.33-2.69,7.25-2.87,6.9,3.59-.24,4.38,1.08,7.45,6.36,7.55C247.63,285,247.63,285.06,247.26,296.74Z"/><path class="cls-7" d="M337.93,229.05c-.95,4.13-2.52,6.75-7.61,4.67-2.74-1.13-5.95-1.19-9-1.6-6.48-.89-7.52-2.82-4.4-8.36.37-.67.94-1.22,1.29-1.9,1.24-2.41,4.72-4.52,3.55-7.09-1.29-2.81-5-1.06-7.7-1.34-4.51-.47-9.34-.44-6.65-7.35,6.12-1.42,12.27-.84,18.43-.31,10.66,2.91,11.75,7.46,3.67,17.35,2.61,1.87,6.56,1.35,8.38,4.37Z"/><path class="cls-7" d="M287.36,210.41c8.86,4.65,8.86,4.65.9,18.88,5.24,3.64,15.94-1.45,16.22,10.13l-7.77,2.19c-2-6-7.73-3.92-11.68-4.68-8.35-1.63-9.49-3.41-4.62-10.64.43-.63.95-1.21,1.44-1.8,1.3-1.57,3.46-3.3,2.74-5.19-.9-2.33-4-1.43-6.09-2.07s-4.4,1.9-6.44-.44A41.28,41.28,0,0,1,287.36,210.41Z"/><path class="cls-7" d="M247.26,296.74c-1.94-1.46-1.64-3.61-1.47-5.57.4-4.61-1.76-5.72-5.94-5-11.31,1.82-13.87-1-11.44-12.58-1.81-.7-3.63,1.84-5.41.06a33.37,33.37,0,0,1,5.46-12.42c8.72-2.63,10.73-.79,8.78,8a43.79,43.79,0,0,1-1,4.44c-1.75,5.23.27,6.76,5.16,5.2s8.42-.26,10.79,4.27Q249.74,289.94,247.26,296.74Z"/><path class="cls-7" d="M262.73,266c-3.25-1.61-3.25-3.94-1.93-7,1.05-2.42,3.4-4.45,2.63-7.93-4.24.53-8.46.89-12.61,1.64-2.52.45-5.1,1.61-7.06-.72s-1.13-4.81.6-6.92c2-2.44,1.33-4.66-.22-6.92a10.9,10.9,0,0,1,4.6-4.76c3.87.66,6.27,3.36,5.66,6.84-.91,5.2,2.3,4.07,4.85,3.94,13.74-.71,15.1,1.23,9.94,14.4Z"/><path class="cls-8" d="M217.93,298.1c4.67,1.15,4,5.31,4.64,8.59.51,2.82,1.34,4,4.49,3.25,13.32-3.21,14.26-2.48,15.79,11.38-.14,1-.28,2-.41,3a4.55,4.55,0,0,1-6.6-1.65c-2.85-4.81-6.16-4.22-10.36-2.28-2.66,1.24-5.57,1.49-7.15-2C217.33,311.61,216.49,304.88,217.93,298.1Z"/><path class="cls-9" d="M337.93,227.49c-4.16-.47-8-2.34-12.94-1.5,10.21-14.68,10.21-14.68.89-20.22,11.65.36,11.79.46,12.18,11.85C338.18,220.91,338,224.2,337.93,227.49Z"/><path class="cls-10" d="M218.33,318.34c3.34,2.54,6.29.73,9.19-.9,3.65-2.05,6.9-3.68,8.43,2.38.76,3,3.46,4.23,6.49,4.46-7.41,3.42-14.89,1.82-22.23,0C217.43,323.52,218.32,320.53,218.33,318.34Z"/><path class="cls-11" d="M212,39.26a19.54,19.54,0,1,1,39.07,0c0,10.53-9.12,19.81-19.55,19.87S212,49.93,212,39.26Z"/><path class="cls-1" d="M55.1,383.12c-4.3-11.63-9.68-15.6-19.32-15.57-9.44,0-15.21,4.49-19.36,15.71-5.23,14.15-10.19,28.4-15.09,42.67A27.35,27.35,0,0,0,0,434.23c-.13,8.58,5.32,12.88,14.87,12,7.53-.69,12.34-6.44,10.2-13.94-1.78-6.25.89-6.52,5.45-6.24,1.79.11,3.6,0,6.75,0,6.2-1.19,11.4-.64,9.4,9.72-1.13,5.79,3.41,9.3,9.17,10.3,11.86,2.07,18.86-5,15.31-16.63C66.37,413.85,60.77,398.46,55.1,383.12ZM28.29,410.41c1.62-5.05,3.07-9.66,4.59-14.24.6-1.79.27-4.6,3.1-4.48,2.11.09,2.43,2.47,3,4.08,1.52,4.6,2.84,9.26,4.46,14.64Z"/><path class="cls-1" d="M129.14,399.45c.19-4-1.35-7.32-5.21-8.5s-8.32-1.71-11.64,1.47c-1.82,1.74-2.76,4.39-4.18,6.77-5.33-7.58-10.14-10-17.66-8.46s-12.22,6-14.33,13.38a36.25,36.25,0,0,0-.56,19c2.26,9.19,8.39,14.69,16.87,15.43s14.08-3.17,16.76-11.57c1.77,18.19-2.18,21.32-18.62,15.43C84.75,440.29,80,441,76.73,446.72c-3.1,5.45-1.47,12.17,4.42,16.06,10.69,7.05,22.48,7.28,33.83,2.68,10.45-4.25,13.23-14.08,14.18-24.55C130.41,427.08,128.49,413.27,129.14,399.45Zm-28,19.49c-4,0-8.16-.35-8.25-5.58-.1-5.38,4.24-5.41,8-5.69,4,.25,8.46.39,8.5,5.54S105.15,418.9,101.17,418.94Z"/><path class="cls-1" d="M254.08,390.32c-7.75-.77-13.41,2.12-17.09,9-.72,1.35-.42,3.74-3,3.61-.61-10.54-2.48-12.85-10.19-12.68-7.1.16-11.05,3.41-10.58,10.16,1.33,18.93.5,37.88.88,56.82.13,6.39,2.75,10.87,10.09,10.83,6.63,0,9.56-3.17,9.69-10.91s0-15.2,0-25.17c1.85,2.47,2.44,3,2.68,3.61,2.77,7.36,8,11.1,15.92,10.55s13.23-5,15.57-12.63c3.24-10.54,3.46-21.11-.26-31.64C265.49,395.33,261.37,391,254.08,390.32ZM242.81,423.6c-4.74,0-9.24-1.16-8.92-6.74s4.85-6.44,9.28-6.05c5.06-.16,9.36.69,9.08,6.67S247.28,423.56,242.81,423.6Z"/><path class="cls-1" d="M436,389.68c-16.87-.08-28.13,11.51-27.91,28.74.23,17.61,10.33,27.8,27.59,27.83,17.94,0,27.31-9.38,27.43-27.54C463.26,400.36,453.36,389.77,436,389.68ZM446,421c-3.46.72-7,.92-10.82,1.37-3.34-.49-6.9-.8-10.35-1.59a4.78,4.78,0,0,1,.22-9.35,52.27,52.27,0,0,1,21.14-.06,4.75,4.75,0,0,1,4.05,4.89A4.86,4.86,0,0,1,446,421Z"/><path class="cls-1" d="M309.8,424.25c-4.16,2.36-5.68.44-5.92-3.44-.21-3.33,0-6.68-.13-10s1-4.21,4.5-3.81c8.51,1,13-2.26,13.11-8.75.12-6.28-3.81-9.51-12.09-9.14-4.14.18-5.68-.21-5.14-5.16.78-7.1-3-10.5-9.85-10.63-7.39-.13-10,2.32-10,10.17,0,3.69.08,6-5,5.8-4.8-.19-7.07,3.69-7.19,8.3-.11,4.07,1.21,9,5.48,8.78,8.27-.51,6.56,4.61,6.63,9.12.06,3.85-.12,7.71,0,11.55.55,12,8.28,19.23,20.35,19.22,7.14,0,12.77-2,16.09-5.85,3.81-4.42,4.22-9.43,1.25-14.23S314.26,421.7,309.8,424.25Z"/><path class="cls-1" d="M400,391c-5.08-1.75-11-2.05-14.86,2.91-4.1,5.27-3.61,10.92.53,16.19,1.26,1.61,2.64,3.15,3.74,4.86,2.25,3.48,4.17,7.18,2.58,11.47a4.18,4.18,0,0,1-5,2.58c-4.76-1.05-5.78-5.32-7.11-9.14-2.69-7.71-5-15.56-7.94-23.19-2.24-5.86-6.8-8.11-12.95-6.21-5.62,1.74-8,6.14-6.41,11.32C356,413,360,424,364.39,434.9c3.05,7.54,9.34,11.23,15.92,11.36,8.39-.09,12.94-2.49,15.77-8.71a156.16,156.16,0,0,0,10.55-32.67C407.9,398.84,406.26,393.15,400,391Z"/><path class="cls-1" d="M173,390.21c-9.21-.79-13.36,4.68-15.72,13.13-.68-1.42-1.23-2.07-1.27-2.75-.47-7.14-4-10.8-11.37-10.29-6.5.45-9.61,4.23-9.68,12.18-.1,11-.12,22,0,33,.08,6.7,3.64,10.44,10.4,10.74,6.51.29,10.24-3.31,10.5-10.38.25-6.39,0-12.79.09-19.18.05-3-.81-6.51,2.28-8.43,3.64-2.27,5.26,1.5,7.66,3.09,3.94,2.61,8.39,3.09,12.26.33,4.66-3.32,5.59-8.45,4.19-13.76C181.11,393.26,178,390.65,173,390.21Z"/><path class="cls-1" d="M207,398.49c-.56-6.48-5.1-9.18-11.32-8.62-5.64.51-8.72,3.62-8.58,9.62s0,12.28,0,18.42c0,5.88.11,11.77,0,17.65-.16,6.45,2.56,10.27,9.23,10.63,6.5.35,10.42-3.13,10.87-10.12.35-5.6.12-11.25.1-16.88C207.27,412.29,207.61,405.35,207,398.49Z"/><path class="cls-1" d="M347.8,399.24c-.07-6.84-4.25-9.54-10.42-9.42s-9.39,3.36-9.38,9.66c0,12.27,0,24.53,0,36.8,0,6.52,3.32,10.07,9.92,9.9,6.45-.15,9.81-3.67,9.87-10.15.06-6.13,0-12.26,0-18.39S347.87,405.38,347.8,399.24Z"/><path class="cls-1" d="M197.5,367.42c-6.79-.26-10.94,3.4-11.19,9.77s3.63,10.34,10.45,10.39c7,.05,10.74-3.45,10.69-10.07S203.94,367.66,197.5,367.42Z"/><path class="cls-1" d="M338,367.41c-6.81-.09-10.56,3.52-10.72,10.13-.16,6.83,3.65,9.68,9.92,10,6.87.37,11-3.25,11.23-9.63S344.75,367.49,338,367.41Z"/></g></g></svg>