<svg xmlns="http://www.w3.org/2000/svg" viewBox="0 0 724.17 161.3"><defs><style>.cls-1{isolation:isolate;}.cls-2{font-size:73.45px;}.cls-2,.cls-3{font-family:Poppins-Regular, Poppins;}.cls-3{font-size:58.07px;fill:#9e9e9e;}.cls-4{fill:#a7c7fc;}.cls-5{fill:#4d80c9;}.cls-13,.cls-6{fill:#a0d1e1;}.cls-7{fill:#9acf94;}.cls-11,.cls-8{fill:#498470;}.cls-9{fill:#fff;}.cls-10,.cls-12{fill:#eae861;}.cls-11,.cls-12,.cls-13{opacity:0.5;}.cls-11{mix-blend-mode:screen;}.cls-12,.cls-13{mix-blend-mode:darken;}</style></defs><g class="cls-1"><g id="Capa_2" data-name="Capa 2"><g id="Capa_1-2" data-name="Capa 1"><text class="cls-2" transform="translate(0 62.17)">Bienvenido a la era </text><text class="cls-3" transform="translate(0 135.81) scale(0.93 1)">Agrícola moderna</text><g id="_320_Meter_Temperature_Thermometer" data-name="320, Meter, Temperature, Thermometer"><path class="cls-4" d="M529.55,118.53V98.79a5.2,5.2,0,1,0-10.39-.08v19.74a11.35,11.35,0,1,0,16.62,10.2A11.42,11.42,0,0,0,529.55,118.53Z"/><path class="cls-5" d="M552.06,125.85a1,1,0,0,1,.33.74.79.79,0,0,1-.33.74,1.2,1.2,0,0,1-.75.33,1.09,1.09,0,0,1-1.08-1.07.91.91,0,0,1,.34-.74,1.26,1.26,0,0,1,.74-.33A1.07,1.07,0,0,1,552.06,125.85Z"/><path class="cls-5" d="M550,93.94a1,1,0,0,1,.34.74.81.81,0,0,1-.34.74,1.26,1.26,0,0,1-.74.33,1.1,1.1,0,0,1-1.08-1.07.88.88,0,0,1,.33-.74,1,1,0,0,1,.75-.33A1,1,0,0,1,550,93.94Z"/><path class="cls-5" d="M539.6,132a1,1,0,0,1,.33.74.88.88,0,0,1-.33.74,1.23,1.23,0,0,1-.75.33,1.09,1.09,0,0,1-1.08-1.07.93.93,0,0,1,.33-.74,1,1,0,0,1,1.5,0Z"/><path class="cls-5" d="M536.44,98.05a1,1,0,0,1,.34.74.88.88,0,0,1-.34.74,1.2,1.2,0,0,1-.74.33,1.09,1.09,0,0,1-1.08-1.07.88.88,0,0,1,.33-.74,1.26,1.26,0,0,1,.75-.33A1,1,0,0,1,536.44,98.05Z"/><path class="cls-5" d="M514.68,95a1,1,0,0,1,.33.74.8.8,0,0,1-.33.74,1.29,1.29,0,0,1-.75.33,1.1,1.1,0,0,1-1.08-1.07.88.88,0,0,1,.33-.74,1,1,0,0,1,1.5,0Z"/><path class="cls-5" d="M514.68,112.45a1,1,0,0,1,.33.74.81.81,0,0,1-.33.74,1.27,1.27,0,0,1-.75.32,1.09,1.09,0,0,1-1.08-1.06.88.88,0,0,1,.33-.74,1,1,0,0,1,1.5,0Z"/><path class="cls-5" d="M510.52,134.08a1,1,0,0,1,.34.74.8.8,0,0,1-.34.74,1.26,1.26,0,0,1-.74.33,1.09,1.09,0,0,1-1.08-1.07.88.88,0,0,1,.33-.74,1,1,0,0,1,1.49,0Z"/><path class="cls-6" d="M524.31,141h-.16a12.69,12.69,0,0,1-8.73-3.62,12.21,12.21,0,0,1-3.57-8.72A12.38,12.38,0,0,1,518.08,118V98.79a6.15,6.15,0,0,1,1.83-4.36,6.24,6.24,0,0,1,10.63,4.36V118a12.25,12.25,0,0,1,2.58,19.41A12.53,12.53,0,0,1,524.31,141Zm0-46.31a3.89,3.89,0,0,0-2.9,1.23,4.16,4.16,0,0,0-1.25,2.88v19.74a1,1,0,0,1-.58.91,10.14,10.14,0,0,0-5.65,9.13,10.25,10.25,0,0,0,10.22,10.28h.16a10.25,10.25,0,0,0,4.74-19.41,1,1,0,0,1-.58-.91V98.79A4.15,4.15,0,0,0,524.31,94.68Z"/><path class="cls-5" d="M524.31,135.81a7.24,7.24,0,1,1,7.31-7.24A7.29,7.29,0,0,1,524.31,135.81Zm0-12.34a5.18,5.18,0,1,0,5.24,5.18A5.24,5.24,0,0,0,524.31,123.47Z"/><path class="cls-5" d="M524.31,131.69a3.13,3.13,0,0,1-3.15-3.12,1.08,1.08,0,0,1,2.16,0,1.1,1.1,0,0,0,1.08,1.07,1.09,1.09,0,0,1,1.08,1.07A1.17,1.17,0,0,1,524.31,131.69Z"/><path class="cls-5" d="M524.31,123.47a1.1,1.1,0,0,1-1.08-1.07V99.86a1.08,1.08,0,0,1,2.16,0v22.62A1,1,0,0,1,524.31,123.47Z"/><path class="cls-5" d="M542.84,116.31a5,5,0,1,1,5.07-5A5,5,0,0,1,542.84,116.31Zm0-8a3,3,0,1,0,3,3A3,3,0,0,0,542.84,108.33Z"/><path class="cls-5" d="M542.84,105.29a1.09,1.09,0,0,1-1.08-1.07v-2.39a1.08,1.08,0,0,1,2.16,0v2.39A1,1,0,0,1,542.84,105.29Z"/><path class="cls-5" d="M546.41,106.28a1.29,1.29,0,0,1-.5-.17,1.06,1.06,0,0,1-.41-1.4l1.24-2a1.07,1.07,0,0,1,1.42-.41,1,1,0,0,1,.41,1.39l-1.24,2.06A1.08,1.08,0,0,1,546.41,106.28Z"/><path class="cls-5" d="M549,108.83a1.07,1.07,0,0,1-.92-.5,1.05,1.05,0,0,1,.42-1.4l2.08-1.23a1.07,1.07,0,0,1,1.41.41,1.05,1.05,0,0,1-.42,1.4l-2.07,1.23C549.32,108.74,549.15,108.83,549,108.83Z"/><path class="cls-5" d="M552.39,112.36H550a1.07,1.07,0,1,1,0-2.14h2.41a1.09,1.09,0,0,1,1.08,1.07A1.22,1.22,0,0,1,552.39,112.36Z"/><path class="cls-5" d="M551.06,117.05a1.18,1.18,0,0,1-.49-.16l-2.08-1.24a1,1,0,0,1-.42-1.4,1.09,1.09,0,0,1,1.42-.41l2.07,1.24a1,1,0,0,1,.42,1.4A1.15,1.15,0,0,1,551.06,117.05Z"/><path class="cls-5" d="M547.57,120.51a1,1,0,0,1-.91-.5l-1.16-2.14a1,1,0,0,1,.41-1.39,1.07,1.07,0,0,1,1.42.41l1.24,2a1,1,0,0,1-.41,1.4A2.27,2.27,0,0,1,547.57,120.51Z"/><path class="cls-5" d="M542.84,121.74a1.09,1.09,0,0,1-1.08-1.07v-2.38a1.08,1.08,0,0,1,2.16,0v2.38A1.09,1.09,0,0,1,542.84,121.74Z"/><path class="cls-5" d="M538.1,120.51a1.2,1.2,0,0,1-.49-.17,1,1,0,0,1-.42-1.4l1.25-2a1.06,1.06,0,0,1,1.41-.41,1,1,0,0,1,.41,1.39L539,119.93A1.26,1.26,0,0,1,538.1,120.51Z"/><path class="cls-5" d="M534.62,117.05a1,1,0,0,1-.5-1.89l2.07-1.23a1.07,1.07,0,0,1,1.42.41,1.05,1.05,0,0,1-.42,1.4L535.11,117C535,117,534.78,117.05,534.62,117.05Z"/><path class="cls-5" d="M535.78,112.36h-2.41a1.07,1.07,0,1,1,0-2.14h2.41a1.1,1.1,0,0,1,1.08,1.07A1.15,1.15,0,0,1,535.78,112.36Z"/><path class="cls-5" d="M536.69,108.83a1.29,1.29,0,0,1-.5-.17l-2.07-1.23a1.05,1.05,0,0,1-.42-1.4,1.07,1.07,0,0,1,1.41-.41l2.08,1.23a1.05,1.05,0,0,1,.42,1.4A.91.91,0,0,1,536.69,108.83Z"/><path class="cls-5" d="M539.35,106.28a1,1,0,0,1-.91-.5l-1.25-2.14a1,1,0,0,1,.42-1.39,1.06,1.06,0,0,1,1.41.41l1.24,2a1,1,0,0,1-.41,1.4A1.24,1.24,0,0,1,539.35,106.28Z"/><path class="cls-5" d="M526.39,105h-2.08a1.07,1.07,0,1,1,0-2.14h2.08a1.09,1.09,0,0,1,1.08,1.07A1,1,0,0,1,526.39,105Z"/><path class="cls-5" d="M526.39,108.09h-2.08a1.07,1.07,0,1,1,0-2.14h2.08a1.07,1.07,0,1,1,0,2.14Z"/><path class="cls-5" d="M526.39,111.13h-2.08a1.07,1.07,0,1,1,0-2.14h2.08a1.09,1.09,0,0,1,1.08,1.07A1,1,0,0,1,526.39,111.13Z"/><path class="cls-5" d="M526.39,114.25h-2.08a1.07,1.07,0,1,1,0-2.13h2.08a1.07,1.07,0,1,1,0,2.13Z"/><path class="cls-5" d="M526.39,117.3h-2.08a1.07,1.07,0,1,1,0-2.14h2.08a1.09,1.09,0,0,1,1.08,1.07A1,1,0,0,1,526.39,117.3Z"/><path class="cls-5" d="M511.35,108.09a2.55,2.55,0,1,1,2.58-2.55A2.58,2.58,0,0,1,511.35,108.09Zm0-3.13a.5.5,0,0,0,0,1,.5.5,0,1,0,0-1Z"/><path class="cls-5" d="M546.16,137.86a3.13,3.13,0,1,1,3.16-3.12A3.2,3.2,0,0,1,546.16,137.86Zm0-4.11a1.07,1.07,0,1,0,1.08,1.07A1.22,1.22,0,0,0,546.16,133.75Z"/></g><g id="_310_Agriculture_Carrot_Farm_Food_Vegetable" data-name="310, Agriculture, Carrot, Farm, Food, Vegetable"><path class="cls-7" d="M602.54,94.67a5.88,5.88,0,0,1,5.87,5.81,5.87,5.87,0,0,0-4.46,2,5.6,5.6,0,0,0-3.36-1.08,6.13,6.13,0,0,0-3.52,1.16,6.1,6.1,0,0,1-.39-2.09A5.83,5.83,0,0,1,602.54,94.67Z"/><path class="cls-7" d="M613.25,130.91a3.74,3.74,0,0,1,2,3.4,3.91,3.91,0,0,1-7.82,0,3.72,3.72,0,0,1,1.95-3.33,4.1,4.1,0,0,1,2-.54A3.71,3.71,0,0,1,613.25,130.91Z"/><path class="cls-7" d="M622.17,123.78a3.92,3.92,0,0,1,4.85,4.34,3.81,3.81,0,0,1-1.8,2.71,5.12,5.12,0,0,1-1.8.54,4.12,4.12,0,0,1-2.19-.46,2.66,2.66,0,0,1-.55-.39,3.85,3.85,0,0,1-1.4-3h0a3.73,3.73,0,0,1,1.25-2.86A3.68,3.68,0,0,1,622.17,123.78Z"/><path class="cls-7" d="M616.07,110.16a23.89,23.89,0,0,0,4.69-3.64,26.31,26.31,0,0,0,2-2.25h0c2.73-.77,4.84-.85,5.16-.08.39,1-2.58,3.1-6.57,4.65a29.93,29.93,0,0,1-5.32,1.32Z"/><path class="cls-7" d="M618,103.73a23,23,0,0,0-3.68,4.57,23.87,23.87,0,0,1,1.33-5.19c1.56-4,3.67-6.89,4.69-6.5.78.31.7,2.4-.08,5.11A13.15,13.15,0,0,0,618,103.73Z"/><path class="cls-7" d="M592.22,125.64l11.26-14.4a4.93,4.93,0,0,1,.55-.62,1,1,0,0,1,.31-.23h0a6.9,6.9,0,0,1,8.68-.47,4.27,4.27,0,0,1,.86.78,6.68,6.68,0,0,1,2,4.88,6.92,6.92,0,0,1-2.58,5.34l-4.06,3.25L607.08,126l-3.37,2.71-5.7,4.57-5.71,4.57a4,4,0,0,1-5.16-.23,3.77,3.77,0,0,1-.32-5Zm18.06-7.59a1,1,0,0,0,0-1.39,1,1,0,0,0-1.4,0,1,1,0,0,0,0,1.39A1.16,1.16,0,0,0,610.28,118.05Z"/><path class="cls-8" d="M628,97.22c0,.08.07.24.07.31a1,1,0,0,1-.7.93,1,1,0,0,1-1.25-.62c0-.07-.08-.23-.08-.31a1,1,0,0,1,.71-.92c.07,0,.23-.08.31-.08A1.27,1.27,0,0,1,628,97.22Z"/><path class="cls-8" d="M620.14,119.53c0,.07.08.23.08.3a1,1,0,0,1-.71.93,1,1,0,0,1-1.25-.62c0-.07-.08-.23-.08-.31a1,1,0,0,1,.7-.92c.08,0,.24-.08.32-.08A1,1,0,0,1,620.14,119.53Z"/><path class="cls-8" d="M615.21,97.22c0,.08.08.24.08.31a1,1,0,0,1-.71.93,1,1,0,0,1-1.25-.62c0-.07-.08-.23-.08-.31a1,1,0,0,1,.71-.92c.08,0,.23-.08.31-.08A1.14,1.14,0,0,1,615.21,97.22Z"/><path class="cls-8" d="M610.28,116.66a1,1,0,0,1,0,1.39,1,1,0,0,1-1.4,0,1,1,0,0,1,0-1.39A1,1,0,0,1,610.28,116.66Z"/><path class="cls-8" d="M607.39,137c0,.07.08.23.08.31a1,1,0,0,1-.71.93,1,1,0,0,1-1.25-.62c0-.08-.07-.24-.07-.31a1,1,0,0,1,.7-.93c.08,0,.23-.08.31-.08A.92.92,0,0,1,607.39,137Z"/><path class="cls-8" d="M593.71,101.1c0,.07.07.23.07.31a1,1,0,0,1-.7.93,1,1,0,0,1-1.25-.62c0-.08-.08-.24-.08-.31a1,1,0,0,1,.7-.93c.08,0,.24-.08.32-.08A1.14,1.14,0,0,1,593.71,101.1Z"/><path class="cls-8" d="M587.84,97.22c0,.08.08.24.08.31a1,1,0,0,1-.71.93,1,1,0,0,1-1.25-.62c0-.07-.08-.23-.08-.31a1,1,0,0,1,.71-.92c.08,0,.23-.08.31-.08A1,1,0,0,1,587.84,97.22Z"/><path class="cls-8" d="M585.88,125.33c0,.08.08.23.08.31a1,1,0,0,1-2,.31c0-.08-.08-.23-.08-.31a1,1,0,0,1,.7-.93c.08,0,.24-.07.32-.07A.85.85,0,0,1,585.88,125.33Z"/><path class="cls-8" d="M616.07,111.09a.94.94,0,0,1-.94-.86,1,1,0,0,1,.86-1.08,23.52,23.52,0,0,0,5.08-1.32,17.12,17.12,0,0,0,5.79-3.25,10.85,10.85,0,0,0-3.75.54,1,1,0,0,1-1.25-.62.88.88,0,0,1,.7-1.16c3.68-1,5.79-.85,6.33.54s-1.32,2.79-1.95,3.26a24.72,24.72,0,0,1-5.16,2.63,23.35,23.35,0,0,1-5.47,1.39A.32.32,0,0,0,616.07,111.09Z"/><path class="cls-8" d="M614.27,109.3h-.15a1,1,0,0,1-.87-1.08,21.63,21.63,0,0,1,1.41-5.42,24,24,0,0,1,2.66-5.11c.47-.62,1.8-2.56,3.29-1.94,1.33.55,1.48,2.64.54,6.28a1,1,0,0,1-1.17.69.93.93,0,0,1-.7-1.16,10.32,10.32,0,0,0,.54-3.72,17.11,17.11,0,0,0-3.28,5.73,21.81,21.81,0,0,0-1.33,5A.87.87,0,0,1,614.27,109.3Z"/><path class="cls-8" d="M607.62,116.35a1,1,0,0,1-.7-.31l-4.14-4.1a1,1,0,0,1,0-1.4,1,1,0,0,1,1.4,0l4.15,4.11a1,1,0,0,1,0,1.39A1.39,1.39,0,0,1,607.62,116.35Z"/><path class="cls-8" d="M606.22,120.45a.94.94,0,0,1-.71-.31l-1.4-1.39a1,1,0,0,1,0-1.39,1,1,0,0,1,1.4,0l1.41,1.39a1,1,0,0,1,0,1.39A.75.75,0,0,1,606.22,120.45Z"/><path class="cls-8" d="M607.08,126.88a.87.87,0,0,1-.71-.31l-3.67-3.72a1,1,0,0,1,0-1.39,1,1,0,0,1,1.41,0l3.67,3.72a1,1,0,0,1,0,1.39A1.15,1.15,0,0,1,607.08,126.88Z"/><path class="cls-8" d="M614.9,118.44l-3.83-3.79a1,1,0,0,1,0-1.4,1,1,0,0,1,1.4,0l3.76,3.72-.63.77Z"/><path class="cls-8" d="M597.85,127.19a1,1,0,0,1-.7-.31l-3.44-3.41a1,1,0,0,1,0-1.39,1,1,0,0,1,1.4,0l3.44,3.41a1,1,0,0,1,0,1.39A.76.76,0,0,1,597.85,127.19Z"/><path class="cls-8" d="M597.93,134.16a1,1,0,0,1-.71-.31L594.41,131a1,1,0,0,1,0-1.39,1,1,0,0,1,1.41,0l2.81,2.87a1,1,0,0,1,0,1.39A.77.77,0,0,1,597.93,134.16Z"/><path class="cls-8" d="M590.26,133.38a1,1,0,0,1-.7-.3l-1.88-1.86a1,1,0,0,1,0-1.4,1,1,0,0,1,1.41,0l1.88,1.86a1,1,0,0,1,0,1.4A1.2,1.2,0,0,1,590.26,133.38Z"/><path class="cls-8" d="M592.22,121.77a1,1,0,0,1-.7-.31,6.54,6.54,0,0,1,0-9.29,1,1,0,0,1,1.4,0,1,1,0,0,1,0,1.39,4.6,4.6,0,0,0,0,6.51,1,1,0,0,1,0,1.39A1.36,1.36,0,0,1,592.22,121.77Z"/><path class="cls-8" d="M589.8,111.16a1.1,1.1,0,0,1-.79-.38l-.07-.08-.32-.31h0l-.08-.08h0a.92.92,0,0,0-.31-.23,3.84,3.84,0,0,0-3.28-1,3,3,0,0,0-1.49.62.92.92,0,0,1-1.33-.23.9.9,0,0,1,.24-1.32,5.83,5.83,0,0,1,7.19.47c.16.08.24.23.39.31l.08.07c.16.16.23.31.39.39s.08.16.16.23a1,1,0,0,1-.16,1.4A1.45,1.45,0,0,1,589.8,111.16Z"/><path class="cls-8" d="M589.8,111.16a.88.88,0,0,1-.63-.23c-.08-.08-.16-.08-.16-.15h0a10,10,0,0,1-.86-.86l-.15-.15-4.46-4.41a1,1,0,0,1,0-1.4,1,1,0,0,1,1.41,0l1.64,1.63a5.2,5.2,0,0,1,1-2.87.93.93,0,0,1,1.33-.23.92.92,0,0,1,.23,1.32,3.82,3.82,0,0,0,.23,4.57l1,1a.89.89,0,0,1,0,1.32A.59.59,0,0,1,589.8,111.16Z"/><path class="cls-8" d="M607.47,132.38a4.93,4.93,0,0,1-4.69-3.49.88.88,0,0,1,.7-1.16.9.9,0,0,1,1.17.7,2.93,2.93,0,0,0,2.82,2.09,3.12,3.12,0,0,0,1.41-.39,3,3,0,0,0,1.56-2.55,2.89,2.89,0,0,0-1.56-2.56,1,1,0,0,1-.4-1.31,1,1,0,0,1,1.33-.39,4.81,4.81,0,0,1,0,8.52A6.07,6.07,0,0,1,607.47,132.38Z"/><path class="cls-8" d="M615.29,132.38a5.13,5.13,0,0,1-2.43-.62,4.88,4.88,0,0,1-2.42-4.18,4.94,4.94,0,0,1,4.93-4.88,4.85,4.85,0,0,1,4.85,4.8h0a4.88,4.88,0,0,1-2.59,4.26A5,5,0,0,1,615.29,132.38Zm0-7.74a2.94,2.94,0,0,0-1.49,5.49,3.18,3.18,0,0,0,1.49.39,3.12,3.12,0,0,0,1.41-.39,3,3,0,0,0,1.56-2.55h0A3,3,0,0,0,615.29,124.64Z"/><path class="cls-8" d="M623.11,132.38a5.13,5.13,0,0,1-2.43-.62l-.7-.47a4.74,4.74,0,0,1-1.8-3.71,4.54,4.54,0,0,1,1.64-3.56,4.59,4.59,0,0,1,2.12-1.09,5.86,5.86,0,0,1,1.17-.15,4.84,4.84,0,0,1,3.67,1.7,4.69,4.69,0,0,1,1.1,3.87,4.94,4.94,0,0,1-2.27,3.41,11,11,0,0,1-2.19.62Zm0-7.74a2.45,2.45,0,0,0-.71.07,2.3,2.3,0,0,0-1.25.7,2.81,2.81,0,0,0-.93,2.17,2.85,2.85,0,0,0,1.09,2.24c.16.08.23.24.39.31a3,3,0,0,0,1.64.39,3.41,3.41,0,0,0,1.33-.46,2.79,2.79,0,0,0,1.33-2,2.56,2.56,0,0,0-.7-2.32A2.74,2.74,0,0,0,623.11,124.64Z"/><path class="cls-8" d="M611.38,139.19a4.94,4.94,0,0,1-4.93-4.88,4.86,4.86,0,0,1,2.43-4.18,4.9,4.9,0,0,1,4.77,0,4.8,4.8,0,0,1-2.27,9.06Zm0-7.74a3.18,3.18,0,0,0-1.49.39,2.88,2.88,0,0,0-1.48,2.55,3,3,0,1,0,4.38-2.55A2.44,2.44,0,0,0,611.38,131.45Z"/><path class="cls-8" d="M619.2,139.19a4.86,4.86,0,0,1-2.43-9.06,5.25,5.25,0,0,1,2.43-.62,5.18,5.18,0,0,1,2.42.62,4.85,4.85,0,0,1-2.42,9.06Zm0-7.74a3.18,3.18,0,0,0-1.49.39,2.88,2.88,0,0,0-1.48,2.55,2.93,2.93,0,0,0,2.89,2.94,2.94,2.94,0,0,0,1.49-5.49A2.29,2.29,0,0,0,619.2,131.45Z"/><path class="cls-8" d="M597.15,103.5a1,1,0,0,1-.94-.62,6.55,6.55,0,0,1-.47-2.48,6.88,6.88,0,0,1,13.76,0,1,1,0,0,1-1,1,4.87,4.87,0,0,0-3.67,1.7,1,1,0,0,1-1.41.08,1,1,0,0,1-.08-1.4,6.69,6.69,0,0,1,4.15-2.24,4.85,4.85,0,0,0-4.77-4,4.94,4.94,0,0,0-4.93,4.88,4.57,4.57,0,0,0,.31,1.78.94.94,0,0,1-.54,1.24Z"/><path class="cls-8" d="M604.26,111.32a1.42,1.42,0,0,1-1-.62c-.16-.16-.24-.39-.47-.62a5.09,5.09,0,0,1-.63-1.09,6.62,6.62,0,0,1-.62-2.47,6.84,6.84,0,0,1,.93-3.88,5.5,5.5,0,0,0-2-.38,4.59,4.59,0,0,0-2.89.93,4.73,4.73,0,0,0-2,3.87v.39a1,1,0,0,1-1,1,.89.89,0,0,1-.93-.93v-.38a6.74,6.74,0,0,1,2.73-5.42,6.86,6.86,0,0,1,8-.08.82.82,0,0,1,.39.7,1.28,1.28,0,0,1-.24.77l-.15.16h0a4.84,4.84,0,0,0-1,3.25,3.3,3.3,0,0,0,.47,1.7,15.56,15.56,0,0,0,.86,1.32,1.34,1.34,0,0,1,.39.54,1,1,0,0,1-.62,1.24Z"/><path class="cls-5" d="M604.34,111.32a.86.86,0,0,1-.86-.54,1,1,0,0,1,.31-1.24,1.05,1.05,0,0,1,1.25.07,1,1,0,0,1,0,1.4.36.36,0,0,1-.23.15A.77.77,0,0,1,604.34,111.32Z"/><path class="cls-8" d="M592.22,126.65a1,1,0,0,1-.47-.08,10.61,10.61,0,0,1-2.66-17h0a10.43,10.43,0,0,1,5.48-2.86,10.9,10.9,0,0,1,9.77,2.94l.47.47a1,1,0,0,1-.08,1.39,1,1,0,0,1-1.41-.08l-.39-.38a8.88,8.88,0,0,0-8-2.4A8.78,8.78,0,0,0,590.5,111h0a8.63,8.63,0,0,0,0,12.31,7.41,7.41,0,0,0,2.19,1.55,1,1,0,0,1,.39,1.31A1.35,1.35,0,0,1,592.22,126.65Z"/><path class="cls-8" d="M613,110.85a.89.89,0,0,1-.63-.23,1,1,0,0,1-.15-1.39,4.8,4.8,0,0,0,1.09-3,4.93,4.93,0,0,0-4.92-4.88,1,1,0,1,1,0-2,6.86,6.86,0,0,1,6.88,6.81,7,7,0,0,1-1.49,4.26A.94.94,0,0,1,613,110.85Z"/><path class="cls-8" d="M624.05,117.9a2.95,2.95,0,1,1,3-2.94A3,3,0,0,1,624.05,117.9Zm0-3.87a1,1,0,1,0,1,1A1,1,0,0,0,624.05,114Z"/><path class="cls-8" d="M601.13,140.12a2.4,2.4,0,1,1,2.43-2.4A2.42,2.42,0,0,1,601.13,140.12Zm0-2.86a.5.5,0,0,0-.47.46.51.51,0,0,0,.47.47.51.51,0,0,0,.47-.47A.44.44,0,0,0,601.13,137.26Z"/><path class="cls-8" d="M614.35,111.7a1.37,1.37,0,0,1-1.17-.46c-1-1,0-2.79.31-3.41a24,24,0,0,1,3.83-4.8,27.78,27.78,0,0,1,2.35-2.09c1.4-1.16,3.36-2.48,4.77-2.48a1.4,1.4,0,0,1,1.17.47c1,1,.31,3-2,5.88h0a29.63,29.63,0,0,1-2.11,2.33,24.11,24.11,0,0,1-4.85,3.79A4.66,4.66,0,0,1,614.35,111.7Zm9.7-11.22a9.55,9.55,0,0,0-3.13,1.93c-.7.62-1.49,1.24-2.19,1.94a19.93,19.93,0,0,0-3.52,4.41,3.88,3.88,0,0,0-.39.93,3.64,3.64,0,0,0,.86-.39,24.38,24.38,0,0,0,6.41-5.65h0A14.62,14.62,0,0,0,624.05,100.48Z"/><path class="cls-8" d="M589.87,139.58a4.92,4.92,0,0,1-3.44-1.39,4.72,4.72,0,0,1-.39-6.28L602.7,110.7c.23-.23.39-.47.62-.7l.32-.31h0A8.06,8.06,0,0,1,609,107.6a8.15,8.15,0,0,1,4.62,1.47,5.17,5.17,0,0,1,1,.85,7.89,7.89,0,0,1,2.35,5.58,7.41,7.41,0,0,1-.47,2.55,7.67,7.67,0,0,1-2.5,3.57L592.84,138.5A4.53,4.53,0,0,1,589.87,139.58ZM605,111.09l-.24.23h0a3.25,3.25,0,0,0-.47.54l-16.65,21.22a2.8,2.8,0,0,0,.23,3.71,2.86,2.86,0,0,0,2,.85,3,3,0,0,0,1.8-.62l21.12-16.88a5.44,5.44,0,0,0,1.87-2.71,5.11,5.11,0,0,0,.31-1.93,5.92,5.92,0,0,0-1.72-4.18,2.81,2.81,0,0,0-.78-.62,6,6,0,0,0-3.44-1.09,5.51,5.51,0,0,0-4.06,1.48Z"/></g><g id="_307_Agriculture_Farming_Garden_Grains" data-name="307, Agriculture, Farming, Garden, Grains"><path class="cls-9" d="M658.39,124.24a1.64,1.64,0,1,1-1.65,1.63A1.64,1.64,0,0,1,658.39,124.24Z"/><path class="cls-9" d="M695.85,94.2a2.15,2.15,0,1,1-2.17,2.15A2.17,2.17,0,0,1,695.85,94.2Z"/><path class="cls-9" d="M687.16,101.69a9.23,9.23,0,0,1,3.13,7,11.39,11.39,0,0,1-.17,1.72,9.16,9.16,0,0,1-3,5.08,9.76,9.76,0,0,1-2.69-4.22,9,9,0,0,1-.35-2.67A8.69,8.69,0,0,1,687.16,101.69Z"/><path class="cls-10" d="M701.24,122.86c0,.09.09.26.09.34a1.1,1.1,0,0,1-.78,1,1.07,1.07,0,0,1-1.39-.69c0-.09-.09-.26-.09-.35a1.08,1.08,0,0,1,.78-1c.09,0,.26-.09.35-.09A1.15,1.15,0,0,1,701.24,122.86Z"/><path class="cls-10" d="M690.38,134.74c0,.08.08.25.08.34a1.12,1.12,0,0,1-2.17.34c0-.08-.09-.25-.09-.34a1.09,1.09,0,0,1,.79-1c.08,0,.26-.09.34-.09A1.05,1.05,0,0,1,690.38,134.74Z"/><path class="cls-10" d="M689.33,96c0,.08.09.26.09.34a1.08,1.08,0,0,1-.78,1,1.06,1.06,0,0,1-1.39-.68c0-.09-.09-.26-.09-.35a1.08,1.08,0,0,1,.78-1c.09,0,.26-.09.35-.09A1.21,1.21,0,0,1,689.33,96Z"/><path class="cls-10" d="M679.51,97c0,.09.09.26.09.34a1.1,1.1,0,0,1-.78,1,1.07,1.07,0,0,1-1.39-.69c0-.09-.09-.26-.09-.35a1.08,1.08,0,0,1,.78-1c.09,0,.26-.08.35-.08A1.12,1.12,0,0,1,679.51,97Z"/><path class="cls-10" d="M663.26,131.47c0,.08.09.25.09.34a1.12,1.12,0,0,1-2.18.34c0-.08-.08-.25-.08-.34a1.08,1.08,0,0,1,.78-1c.09,0,.26-.09.35-.09A1.37,1.37,0,0,1,663.26,131.47Z"/><path class="cls-10" d="M662.13,116.4c0,.09.09.26.09.35a1.12,1.12,0,0,1-2.18.34c0-.08-.08-.26-.08-.34a1.08,1.08,0,0,1,.78-1c.09,0,.26-.09.35-.09A1.15,1.15,0,0,1,662.13,116.4Z"/><path class="cls-10" d="M666.3,107.37a4.78,4.78,0,1,1,0-9.56,4.76,4.76,0,0,1,4.78,4.82A4.68,4.68,0,0,1,666.3,107.37Zm0-7.4a2.68,2.68,0,0,0-2.69,2.66,2.65,2.65,0,0,0,5.3,0A2.52,2.52,0,0,0,666.3,100Z"/><path class="cls-10" d="M666.3,97.13A1.15,1.15,0,0,1,665.17,96v-1.9a1.13,1.13,0,0,1,2.26,0V96A1.15,1.15,0,0,1,666.3,97.13Z"/><path class="cls-10" d="M669.6,98a1.25,1.25,0,0,1-.52-.18,1.09,1.09,0,0,1-.43-1.46l1-1.63a1.12,1.12,0,0,1,1.48-.43,1.09,1.09,0,0,1,.44,1.46l-1,1.72A1.1,1.1,0,0,1,669.6,98Z"/><path class="cls-10" d="M672,100.4a1.12,1.12,0,0,1-1-.52,1.1,1.1,0,0,1,.44-1.46l1.65-1a1.12,1.12,0,0,1,1.48.43,1.09,1.09,0,0,1-.44,1.46l-1.65,1C672.39,100.31,672.21,100.4,672,100.4Z"/><path class="cls-10" d="M674.82,103.67h-1.91a1.12,1.12,0,1,1,0-2.24h1.91a1.12,1.12,0,1,1,0,2.24Z"/><path class="cls-10" d="M673.69,107.8a1.32,1.32,0,0,1-.52-.17l-1.65-.95a1.1,1.1,0,0,1-.44-1.46,1.12,1.12,0,0,1,1.48-.43l1.65.94a1.11,1.11,0,0,1-.52,2.07Z"/><path class="cls-10" d="M670.56,110.9a1.12,1.12,0,0,1-1-.52l-1-1.64a1.1,1.1,0,0,1,.43-1.46,1.13,1.13,0,0,1,1.48.43l1,1.64a1.1,1.1,0,0,1-.44,1.46C670.91,110.81,670.73,110.9,670.56,110.9Z"/><path class="cls-10" d="M666.3,112a1.14,1.14,0,0,1-1.13-1.11V109a1.13,1.13,0,0,1,2.26,0v1.9A1.14,1.14,0,0,1,666.3,112Z"/><path class="cls-10" d="M662.13,110.9a1.2,1.2,0,0,1-.52-.18,1.09,1.09,0,0,1-.44-1.46l1-1.63a1.12,1.12,0,0,1,1.48-.43,1.09,1.09,0,0,1,.43,1.46l-1,1.72A1,1,0,0,1,662.13,110.9Z"/><path class="cls-10" d="M659,107.8a1,1,0,0,1-.52-2l1.65-.95a1.13,1.13,0,0,1,1.48.43,1.11,1.11,0,0,1-.44,1.47l-1.65.94A1.06,1.06,0,0,1,659,107.8Z"/><path class="cls-10" d="M659.78,103.67h-1.91a1.12,1.12,0,1,1,0-2.24h1.91a1.12,1.12,0,1,1,0,2.24Z"/><path class="cls-10" d="M660.65,100.4a1.2,1.2,0,0,1-.52-.18l-1.65-.94a1.11,1.11,0,0,1-.44-1.47,1.14,1.14,0,0,1,1.48-.43l1.65,1a1.1,1.1,0,0,1,.44,1.46A1.12,1.12,0,0,1,660.65,100.4Z"/><path class="cls-10" d="M663.09,98a1.1,1.1,0,0,1-1-.52l-1-1.63a1.11,1.11,0,0,1,.44-1.47,1.13,1.13,0,0,1,1.48.43l.95,1.64a1.1,1.1,0,0,1-.43,1.46A1.08,1.08,0,0,1,663.09,98Z"/><path class="cls-10" d="M658.39,128.63a2.67,2.67,0,1,1,2.7-2.67A2.69,2.69,0,0,1,658.39,128.63Zm0-3.28a.52.52,0,1,0,.52.52A.5.5,0,0,0,658.39,125.35Z"/><path class="cls-10" d="M697,135.08a3.27,3.27,0,1,1,3.31-3.27A3.28,3.28,0,0,1,697,135.08Zm0-4.3a1.12,1.12,0,1,0,1.13,1.12A1.14,1.14,0,0,0,697,130.78Z"/><path class="cls-10" d="M695.85,99.54a3.27,3.27,0,1,1,3.31-3.27A3.29,3.29,0,0,1,695.85,99.54Zm0-4.31A1.12,1.12,0,1,0,697,96.35,1.15,1.15,0,0,0,695.85,95.23Z"/><path class="cls-10" d="M690.23,113.74h-.61a1.11,1.11,0,0,1-1-.95,10.79,10.79,0,0,1,.09-2.41,10.59,10.59,0,0,1,2.87-5.51,10.17,10.17,0,0,1,7.3-3h.61a1.11,1.11,0,0,1,1,1,10.09,10.09,0,0,1-3,7.91,11.12,11.12,0,0,1-5.56,2.93C691.45,113.65,690.84,113.74,690.23,113.74Zm8.17-9.81a7.94,7.94,0,0,0-5.3,2.4,8.74,8.74,0,0,0-2.35,4.39,3.17,3.17,0,0,0-.08.86c.34,0,.61-.08,1-.08a9,9,0,0,0,4.44-2.32A7.91,7.91,0,0,0,698.4,103.93Z"/><path class="cls-10" d="M686.5,116.58a1,1,0,0,1-.7-.26,9.77,9.77,0,0,1-3-4.74,11.4,11.4,0,0,1-.44-3,10.3,10.3,0,0,1,3.48-7.74,1.05,1.05,0,0,1,1.39,0,10.45,10.45,0,0,1,3.48,7.74,14.72,14.72,0,0,1-.18,2,9.85,9.85,0,0,1-3.39,5.68A.57.57,0,0,1,686.5,116.58Zm0-13.34a8.29,8.29,0,0,0,0,10.84,7.53,7.53,0,0,0,1.91-3.79,10.07,10.07,0,0,0,.17-1.55A8.34,8.34,0,0,0,686.5,103.24Z"/><path class="cls-10" d="M693.8,119.93a11.76,11.76,0,0,1-3-.43,10.74,10.74,0,0,1-4.69-3,1,1,0,0,1,0-1.38,9.9,9.9,0,0,1,5.82-3.27,15.53,15.53,0,0,1,2-.17H694a10.18,10.18,0,0,1,7.74,3.44,1.06,1.06,0,0,1,0,1.38,11,11,0,0,1-7.91,3.44Zm-5.48-4.13a8,8,0,0,0,3,1.64,7.86,7.86,0,0,0,2.44.34h.08a8.24,8.24,0,0,0,5.39-2.06,8.12,8.12,0,0,0-5.39-2h-.08a9.2,9.2,0,0,0-1.57.17A8.34,8.34,0,0,0,688.32,115.8Z"/><path class="cls-10" d="M681,122a1,1,0,0,1-.7-.26,9.74,9.74,0,0,1-3-4.73,11.53,11.53,0,0,1-.43-3,10.29,10.29,0,0,1,3.47-7.74,1,1,0,0,1,1.39,0,10.54,10.54,0,0,1,3,4.65,9.7,9.7,0,0,1,.43,3.09,9.89,9.89,0,0,1-3.56,7.66A.59.59,0,0,1,681,122Zm0-13.34a8,8,0,0,0-2,5.42,7.69,7.69,0,0,0,.35,2.41,7.92,7.92,0,0,0,1.65,3,8.07,8.07,0,0,0,2.09-5.33,8.3,8.3,0,0,0-.35-2.5A8.11,8.11,0,0,0,681,108.66Z"/><path class="cls-10" d="M688.32,125.35a11.68,11.68,0,0,1-3-.43,10.72,10.72,0,0,1-4.7-3,1,1,0,0,1,0-1.37,10.36,10.36,0,0,1,7.83-3.45h.08a11.08,11.08,0,0,1,3,.43,10.06,10.06,0,0,1,4.78,3,1,1,0,0,1,0,1.37,11,11,0,0,1-7.91,3.44Zm-5.48-4.13a8.06,8.06,0,0,0,3,1.64,7.84,7.84,0,0,0,2.43.34h.09a8.24,8.24,0,0,0,5.39-2.06,8.06,8.06,0,0,0-3-1.64,7.29,7.29,0,0,0-2.34-.34h-.09A8.56,8.56,0,0,0,682.84,121.22Z"/><path class="cls-10" d="M675.54,127.42a1,1,0,0,1-.69-.26,9.74,9.74,0,0,1-3-4.73,11.52,11.52,0,0,1-.44-3,10.31,10.31,0,0,1,3.48-7.75,1.07,1.07,0,0,1,1.39,0,10.67,10.67,0,0,1,3,4.65,9.46,9.46,0,0,1,.44,3.1,9.93,9.93,0,0,1-3.57,7.66A.67.67,0,0,1,675.54,127.42Zm0-13.34a8.06,8.06,0,0,0-2,5.42,7.69,7.69,0,0,0,.35,2.41,7.92,7.92,0,0,0,1.65,3,8,8,0,0,0,2.09-5.33,7.36,7.36,0,0,0-.35-2.41A8.77,8.77,0,0,0,675.54,114.08Z"/><path class="cls-10" d="M682.76,130.86a11.62,11.62,0,0,1-3-.43,10.72,10.72,0,0,1-4.7-3,1,1,0,0,1,0-1.38,10.37,10.37,0,0,1,7.82-3.44h.09a11.14,11.14,0,0,1,3,.43,10.17,10.17,0,0,1,4.78,3,1.06,1.06,0,0,1,0,1.38,11.32,11.32,0,0,1-7.91,3.44Zm-5.39-4.21a8,8,0,0,0,3,1.63,7.85,7.85,0,0,0,2.43.35h.09a8.25,8.25,0,0,0,5.39-2.07,8,8,0,0,0-3-1.64,7.64,7.64,0,0,0-2.35-.34h-.09A8.54,8.54,0,0,0,677.37,126.65Z"/><path class="cls-10" d="M670.07,132.84a1,1,0,0,1-.7-.26,10.28,10.28,0,0,1,0-15.4,1,1,0,0,1,1.39,0,10.63,10.63,0,0,1,3,4.65,9.7,9.7,0,0,1,.43,3.09,9.89,9.89,0,0,1-3.56,7.66A.78.78,0,0,1,670.07,132.84Zm0-13.34a8,8,0,0,0-2,5.42,7.81,7.81,0,0,0,2,5.34,8.08,8.08,0,0,0,2.08-5.34,8.22,8.22,0,0,0-.34-2.49A10.28,10.28,0,0,0,670.07,119.5Z"/><path class="cls-10" d="M663.72,139.73a1.06,1.06,0,0,1-.78-.35,1.09,1.09,0,0,1,0-1.55l6.61-6.54a1.1,1.1,0,0,1,1.56,0,1.08,1.08,0,0,1,0,1.55l-6.6,6.54A1.1,1.1,0,0,1,663.72,139.73Z"/><path class="cls-10" d="M677.28,136.28h0a10.28,10.28,0,0,1-7.82-3.52,1,1,0,0,1,0-1.38,10.45,10.45,0,0,1,7.74-3.44h.08a11.62,11.62,0,0,1,3,.43,9.75,9.75,0,0,1,4.78,3,1,1,0,0,1,0,1.38A10.41,10.41,0,0,1,677.28,136.28Zm-5.39-4.21a8.24,8.24,0,0,0,5.39,2.06h.09a8.43,8.43,0,0,0,5.47-2.06,7.94,7.94,0,0,0-3-1.64,7.48,7.48,0,0,0-2.43-.34h-.09A7.85,7.85,0,0,0,671.89,132.07Z"/></g><circle class="cls-11" cx="531.08" cy="118.06" r="32.47"/><circle class="cls-12" cx="604.79" cy="113.66" r="32.47"/><circle class="cls-13" cx="678.77" cy="114.83" r="32.47"/></g></g></g></svg>