<svg xmlns="http://www.w3.org/2000/svg" viewBox="0 0 1040.02 500"><defs><style>.cls-1{fill:#e2f7f2;}.cls-2{fill:#bcddb8;}.cls-3{fill:#fff;}.cls-4{fill:#872a21;}.cls-5{fill:#aace96;}.cls-6{fill:#498470;}.cls-7{fill:#9e3a35;}.cls-8{fill:#5e1410;}.cls-9{fill:#3f0b0a;}.cls-10,.cls-15,.cls-20,.cls-22,.cls-23,.cls-27,.cls-28,.cls-29,.cls-30,.cls-31{fill:none;stroke-miterlimit:10;}.cls-10{stroke:#5e1410;stroke-width:0.71px;}.cls-11{fill:#9acf94;}.cls-12{fill:#a0931d;}.cls-13{fill:#726718;}.cls-14{fill:#210b0d;}.cls-15,.cls-22{stroke:#1d1d1b;}.cls-15{stroke-width:0.42px;}.cls-16{fill:#e9e76b;}.cls-17{fill:#5f8370;}.cls-18{fill:#0a492c;}.cls-19{fill:#cdc12d;}.cls-20{stroke:#0a492c;}.cls-20,.cls-23{stroke-width:0.91px;}.cls-21{fill:#351216;}.cls-22{stroke-width:0.26px;}.cls-23{stroke:#127149;}.cls-24{fill:#7dbb77;}.cls-25{fill:#569171;}.cls-26{fill:#336d4c;}.cls-27,.cls-28,.cls-29,.cls-30{stroke:#245b3c;}.cls-27{stroke-width:0.68px;}.cls-28{stroke-width:0.51px;}.cls-29{stroke-width:0.35px;}.cls-30{stroke-width:0.28px;}.cls-31{stroke:#336d4c;stroke-width:0.65px;}</style></defs><g id="Capa_2" data-name="Capa 2"><g id="BACKGROUND"><rect class="cls-1" width="1040" height="500"/></g><g id="OBJECTS"><path class="cls-2" d="M773.6,468.18s-58.9-34-86.64-33.36-69.44,44.8-69.44,44.8,69,31.53,186.36-9.74C814.71,469.62,773.6,468.18,773.6,468.18Z"/><path class="cls-3" d="M518.68,377.14h127.5s-.48-6-10.6-5.54c-.48-9.88-14.46-15.91-23.62-8,6.75-16.63,2.65-28.93-8.92-30.13s-19.28,10.84-21.45,18.32c-7-7.48-8.44-1.21-8.68,0-10.6-11.57-24.83-7.72-29.16-3.14s-3.38,15.43-3.38,15.43-15.18-6.51-18.56.48,2.65,9.4,2.65,9.4S519.4,373.05,518.68,377.14Z"/><path class="cls-2" d="M328.6,292.94S175.27,141.51,118,141.51c-41,0-118,60.57-118,60.57v96.13Z"/><path class="cls-2" d="M1040,417.08s-32.52-20.58-59.53-34.48S894,404.18,837.42,456.4C956.93,480.67,1040,470.82,1040,470.82Z"/><rect class="cls-4" x="918.64" y="424.39" width="2.34" height="30.93"/><path class="cls-5" d="M922.52,369.76c-1.16-2.72-4.26-2.72-5.42,0-4.64,10.87-13.6,33.55-13.59,46.43,0,4.3,4.59,7.75,8.9,10.05a15.43,15.43,0,0,0,14.8,0c4.31-2.3,8.9-5.75,8.9-10.05C936.12,403.31,927.16,380.63,922.52,369.76Z"/><path class="cls-6" d="M922.63,424c-4.54-1.79-9.5-4.7-10-9-1.46-12.61,4.64-35.67,8-47.18a2.86,2.86,0,0,0-3.56,1.89c-4.64,10.87-13.6,33.55-13.59,46.43,0,4.3,4.59,7.75,8.9,10.05a15.43,15.43,0,0,0,14.8,0c.65-.34,1.3-.71,1.94-1.11A15.85,15.85,0,0,1,922.63,424Z"/><rect class="cls-4" x="1010.84" y="415.58" width="2.4" height="31.71"/><path class="cls-5" d="M1015,359.49c-1.19-2.79-4.37-2.79-5.56,0-4.75,11.15-13.94,34.4-13.94,47.6,0,4.41,4.71,8,9.13,10.31a15.85,15.85,0,0,0,15.18,0c4.42-2.36,9.12-5.9,9.12-10.31C1029,393.89,1019.76,370.64,1015,359.49Z"/><path class="cls-6" d="M1014.93,415.2c-4.66-1.84-9.74-4.82-10.25-9.2-1.5-12.92,4.75-36.56,8.23-48.36a2.92,2.92,0,0,0-3.65,1.93c-4.76,11.14-13.94,34.39-13.94,47.6,0,4.4,4.71,7.95,9.13,10.31a15.85,15.85,0,0,0,15.18,0c.66-.36,1.33-.74,2-1.15A16.14,16.14,0,0,1,1014.93,415.2Z"/><polygon class="cls-4" points="935.75 407.13 916.45 418.65 916.45 444.49 935.75 444.49 955.05 444.49 955.05 418.65 935.75 407.13"/><rect class="cls-7" x="955.05" y="418.65" width="36.73" height="25.84"/><polygon points="935.75 407.13 916.13 419.36 910.38 419.11 935.75 402.93 935.75 407.13"/><polygon points="935.75 407.13 955.37 419.36 961.12 419.11 935.75 402.93 935.75 407.13"/><polygon class="cls-3" points="935.75 402.93 976.84 402.93 998.01 419.11 961.12 419.11 935.75 402.93"/><rect x="921.2" y="428.61" width="27.24" height="15.88"/><path class="cls-8" d="M940.14,417.52a3.86,3.86,0,1,1-3.86-3.85A3.85,3.85,0,0,1,940.14,417.52Z"/><path class="cls-9" d="M937.11,413.76a3.85,3.85,0,1,0,3,3.76A3.85,3.85,0,0,0,937.11,413.76Z"/><polyline class="cls-10" points="950.11 444.49 950.11 427.19 919.51 427.19 919.51 444.49"/><polygon points="955.37 419.36 991.78 432.66 991.78 419.11 961.12 419.11 955.37 419.36"/><path class="cls-11" d="M648.25,486.34S834.55,437,1040,439.88V500H647.08Z"/><rect x="307.63" y="188.2" width="4.8" height="101.5" transform="translate(46.86 528.71) rotate(-85.38)"/><rect x="306.48" y="202.33" width="4.8" height="101.5" transform="translate(31.72 540.56) rotate(-85.38)"/><rect x="348.9" y="247.24" width="17.98" height="4.4" transform="translate(80.42 586.06) rotate(-85.38)"/><rect x="317.03" y="244.66" width="17.98" height="4.4" transform="translate(53.69 551.93) rotate(-85.38)"/><rect x="285.17" y="242.09" width="17.98" height="4.4" transform="translate(26.96 517.8) rotate(-85.38)"/><rect class="cls-12" x="124.43" y="170.59" width="5.35" height="10.12" transform="translate(254.2 351.3) rotate(180)"/><rect class="cls-13" x="124.43" y="177.47" width="5.35" height="3.24" transform="translate(254.2 358.18) rotate(180)"/><rect class="cls-12" x="131.65" y="170.59" width="5.34" height="10.12" transform="translate(268.65 351.3) rotate(180)"/><rect class="cls-13" x="131.65" y="177.47" width="5.34" height="3.24" transform="translate(268.65 358.18) rotate(180)"/><rect class="cls-14" x="215.94" y="202.58" width="8.14" height="42.53" transform="translate(533.86 226.56) rotate(135)"/><circle cx="235.37" cy="239.49" r="35.18"/><circle cx="235.37" cy="239.49" r="31.49" transform="translate(-73.73 108.3) rotate(-22.5)"/><circle class="cls-15" cx="235.37" cy="239.49" r="17.86"/><circle class="cls-16" cx="235.37" cy="239.49" r="20.94" transform="matrix(0.26, -0.97, 0.97, 0.26, -56.41, 405.69)"/><circle class="cls-17" cx="235.37" cy="239.49" r="8.09" transform="translate(-99.06 269.68) rotate(-50.65)"/><path class="cls-17" d="M156,190l14.91-34.45a6,6,0,0,1,5.51-3.62h53.66a5.07,5.07,0,0,1,5,4.07l8.16,40.29a46.12,46.12,0,0,1,24.41,13.56,2.61,2.61,0,0,1-.17,3.7h0a2.63,2.63,0,0,1-3.71-.18,38.65,38.65,0,0,0-67,25.18h-94.2a5.27,5.27,0,0,1-5.28-5.28v-7.61L94,218.45V196.77a6.8,6.8,0,0,1,6.8-6.79Z"/><path class="cls-18" d="M147,223.84h0a2.1,2.1,0,0,0,2.1-2.09V198.67a2.1,2.1,0,0,0-2.1-2.1h0a2.1,2.1,0,0,0-2.09,2.1v23.08A2.1,2.1,0,0,0,147,223.84Z"/><path class="cls-18" d="M139.81,223.84h0a2.1,2.1,0,0,0,2.1-2.09V198.67a2.1,2.1,0,0,0-2.1-2.1h0a2.11,2.11,0,0,0-2.1,2.1v23.08A2.1,2.1,0,0,0,139.81,223.84Z"/><path class="cls-18" d="M132.62,223.84h0a2.1,2.1,0,0,0,2.1-2.09V198.67a2.11,2.11,0,0,0-2.1-2.1h0a2.1,2.1,0,0,0-2.1,2.1v23.08A2.1,2.1,0,0,0,132.62,223.84Z"/><path class="cls-1" d="M208.75,156.41H178.12a3.48,3.48,0,0,0-3.23,2.17L163,187.8a2.23,2.23,0,0,0,2.06,3.07h43.74Z"/><path class="cls-1" d="M213.24,190.87V156.41h14.18a3.19,3.19,0,0,1,3.12,2.56l5.87,29.34a2.15,2.15,0,0,1-2.11,2.56Z"/><polygon class="cls-3" points="183.57 156.41 208.75 156.41 208.75 190.88 196.94 190.88 183.57 156.41"/><path class="cls-3" d="M227.42,156.41a3.19,3.19,0,0,1,3.12,2.56l5.87,29.34a2.15,2.15,0,0,1-2.11,2.56H231l-14.45-34.46Z"/><path class="cls-18" d="M94,197h9a2.7,2.7,0,0,1,2.7,2.7v23.86a2.1,2.1,0,0,1-2.11,2.11H97.25L94,218.45Z"/><rect class="cls-19" x="96.65" y="199.37" width="5.99" height="14.99" transform="translate(199.3 413.72) rotate(180)"/><rect class="cls-19" x="97.25" y="228.14" width="8.39" height="5" transform="translate(202.9 461.27) rotate(180)"/><line class="cls-20" x1="211.11" y1="209.51" x2="211.11" y2="151.91"/><line class="cls-20" x1="156" y1="189.98" x2="156" y2="238.53"/><circle class="cls-21" cx="126.7" cy="253.11" r="21.56" transform="translate(-141.87 163.72) rotate(-45)"/><circle cx="126.7" cy="253.11" r="19.3"/><path class="cls-22" d="M115.75,253.11a10.95,10.95,0,1,0,11-11A10.95,10.95,0,0,0,115.75,253.11Z"/><circle class="cls-16" cx="126.7" cy="253.11" r="12.83" transform="translate(-54.76 35.88) rotate(-13.28)"/><path class="cls-17" d="M121.74,253.11a5,5,0,1,0,5-5A5,5,0,0,0,121.74,253.11Z"/><path class="cls-18" d="M190.16,202.16h12.39a2.6,2.6,0,0,0,2.6-2.59h0a2.61,2.61,0,0,0-2.6-2.6H190.16a2.61,2.61,0,0,0-2.59,2.6h0A2.6,2.6,0,0,0,190.16,202.16Z"/><rect class="cls-19" x="119.73" y="180.08" width="20.08" height="9.89" transform="translate(259.54 370.06) rotate(180)"/><rect class="cls-12" x="119.73" y="187.07" width="20.08" height="2.9" transform="translate(259.54 377.05) rotate(180)"/><line class="cls-20" x1="156" y1="230.64" x2="197.56" y2="230.64"/><path class="cls-20" d="M94.65,193.77h10.2a4.78,4.78,0,0,1,4.79,4.78v40"/><line class="cls-23" x1="205.15" y1="199.57" x2="187.68" y2="199.57"/><rect x="302.77" y="253.32" width="4.4" height="21.35" transform="translate(609.93 527.99) rotate(180)"/><rect x="281.25" y="253.32" width="4.4" height="21.35" transform="translate(566.89 527.99) rotate(180)"/><circle cx="328.23" cy="260.1" r="14.57" transform="translate(-50.31 80.96) rotate(-13.07)"/><circle cx="328.23" cy="260.1" r="13.04" transform="translate(-39.56 460.39) rotate(-66.97)"/><circle cx="328.23" cy="260.1" r="7.4" transform="translate(-39.34 460.8) rotate(-67.03)"/><circle cx="328.23" cy="260.1" r="8.68" transform="translate(-39.39 460.71) rotate(-67.01)"/><path d="M324.88,260.1a3.36,3.36,0,1,0,3.35-3.36A3.35,3.35,0,0,0,324.88,260.1Z"/><path class="cls-24" d="M292.75,224.88l7.84,7.05S295.15,237.29,292.75,224.88Z"/><path class="cls-25" d="M292.75,224.88l7.84,7.05S305.35,225.94,292.75,224.88Z"/><path class="cls-24" d="M355.55,229.56l-13.26.95S342.18,220.87,355.55,229.56Z"/><path class="cls-25" d="M355.55,229.56l-13.26.95S343.56,240.07,355.55,229.56Z"/><path class="cls-24" d="M333.31,199.17l-6.09,15.08S316.57,209.18,333.31,199.17Z"/><path class="cls-25" d="M333.31,199.17l-6.09,15.08S338.39,218,333.31,199.17Z"/><rect class="cls-4" x="432.69" y="280.78" width="4.01" height="52.89" transform="translate(869.4 614.46) rotate(180)"/><path class="cls-11" d="M430.06,187.36c2-4.65,7.29-4.65,9.27,0,7.93,18.59,23.26,57.37,23.25,79.39,0,7.36-7.85,13.27-15.22,17.2A26.41,26.41,0,0,1,422,284c-7.37-3.93-15.22-9.84-15.22-17.2C406.81,244.73,422.13,206,430.06,187.36Z"/><path class="cls-6" d="M429.87,280.15c7.77-3.06,16.25-8,17.1-15.34,2.5-21.56-7.93-61-13.73-80.68,2.24-.79,4.83.28,6.09,3.23,7.93,18.59,23.26,57.37,23.25,79.39,0,7.36-7.85,13.27-15.22,17.2A26.41,26.41,0,0,1,422,284c-1.11-.59-2.22-1.23-3.32-1.9A27,27,0,0,0,429.87,280.15Z"/><rect class="cls-4" x="34.62" y="291.93" width="3.37" height="44.39" transform="translate(72.61 628.25) rotate(180)"/><path class="cls-5" d="M32.42,213.52c1.66-3.9,6.11-3.9,7.78,0,6.65,15.6,19.52,48.15,19.51,66.64,0,6.17-6.59,11.13-12.78,14.43a22.15,22.15,0,0,1-21.25,0c-6.18-3.3-12.77-8.26-12.77-14.43C12.9,261.67,25.76,229.12,32.42,213.52Z"/><path class="cls-6" d="M32.26,291.4c6.52-2.57,13.63-6.75,14.35-12.87,2.1-18.1-6.66-51.2-11.53-67.72,1.88-.67,4.06.23,5.12,2.71,6.65,15.6,19.52,48.15,19.51,66.64,0,6.17-6.59,11.13-12.78,14.43a22.15,22.15,0,0,1-21.25,0c-.93-.5-1.86-1-2.78-1.6A22.74,22.74,0,0,0,32.26,291.4Z"/><path class="cls-11" d="M0,500V298.21c65.61-22.79,139.53-35.59,217.72-35.59,218.06,0,402.9,99.59,466.86,237.38Z"/><path class="cls-6" d="M0,500V283.55A691.38,691.38,0,0,1,127.7,271.8C340.88,271.8,522.31,367,590.08,500Z"/><path class="cls-11" d="M0,500V279q30-2.6,61-2.63c210.75,0,390.46,93,460,223.66Z"/><path class="cls-6" d="M0,500V291.65C188.68,302.13,347.16,385.3,415,500Z"/><path class="cls-11" d="M0,500V317.75C142.67,340.28,262.66,409.58,330.59,500Z"/><path class="cls-26" d="M133.36,442.79l.25-51.5S109.18,423,133.36,442.79Z"/><path class="cls-26" d="M133.36,442.79l.25-51.5S157.73,423.23,133.36,442.79Z"/><line class="cls-27" x1="133.44" y1="425.72" x2="144.27" y2="417.47"/><path class="cls-26" d="M135.05,450.18,97.36,415.09S104.1,454.54,135.05,450.18Z"/><path class="cls-26" d="M135.05,450.18,97.36,415.09S137.18,419,135.05,450.18Z"/><line class="cls-27" x1="122.55" y1="438.55" x2="123.83" y2="425"/><path class="cls-25" d="M137.17,450.42l-20.93-47.05S107,442.3,137.17,450.42Z"/><path class="cls-25" d="M137.17,450.42l-20.93-47.05S151.35,422.57,137.17,450.42Z"/><line class="cls-27" x1="130.23" y1="434.82" x2="136.72" y2="422.85"/><path class="cls-26" d="M132.79,450.18l37.69-35.09S163.74,454.54,132.79,450.18Z"/><path class="cls-26" d="M132.79,450.18l37.69-35.09S130.66,419,132.79,450.18Z"/><line class="cls-27" x1="145.29" y1="438.55" x2="144.01" y2="425"/><path class="cls-25" d="M130.67,450.42l20.93-47.05S160.86,442.3,130.67,450.42Z"/><path class="cls-25" d="M130.67,450.42l20.93-47.05S116.49,422.57,130.67,450.42Z"/><path class="cls-4" d="M106.29,458a11.42,11.42,0,0,1,11.4-10.68,11.29,11.29,0,0,1,4.08.76,15.33,15.33,0,0,1,29,4.88A9.42,9.42,0,0,1,165,458Z"/><path class="cls-26" d="M422.77,442.79l.25-51.5S398.59,423,422.77,442.79Z"/><path class="cls-26" d="M422.77,442.79l.25-51.5S447.15,423.23,422.77,442.79Z"/><line class="cls-27" x1="422.85" y1="425.72" x2="433.69" y2="417.47"/><path class="cls-26" d="M424.46,450.18l-37.69-35.09S393.51,454.54,424.46,450.18Z"/><path class="cls-26" d="M424.46,450.18l-37.69-35.09S426.59,419,424.46,450.18Z"/><line class="cls-27" x1="411.97" y1="438.55" x2="413.24" y2="425"/><path class="cls-25" d="M426.58,450.42l-20.92-47.05S396.4,442.3,426.58,450.42Z"/><path class="cls-25" d="M426.58,450.42l-20.92-47.05S440.77,422.57,426.58,450.42Z"/><line class="cls-27" x1="419.64" y1="434.82" x2="426.13" y2="422.85"/><path class="cls-26" d="M422.2,450.18l37.7-35.09S453.15,454.54,422.2,450.18Z"/><path class="cls-26" d="M422.2,450.18l37.7-35.09S420.07,419,422.2,450.18Z"/><line class="cls-27" x1="434.7" y1="438.55" x2="433.42" y2="425"/><path class="cls-25" d="M420.09,450.42,441,403.37S450.27,442.3,420.09,450.42Z"/><path class="cls-25" d="M420.09,450.42,441,403.37S405.9,422.57,420.09,450.42Z"/><path class="cls-4" d="M395.7,458a11.43,11.43,0,0,1,11.4-10.68,11.29,11.29,0,0,1,4.08.76,15.34,15.34,0,0,1,29,4.88,9.41,9.41,0,0,1,14.26,5Z"/><path class="cls-26" d="M611.13,442.79l.25-51.5S586.94,423,611.13,442.79Z"/><path class="cls-26" d="M611.13,442.79l.25-51.5S635.5,423.23,611.13,442.79Z"/><line class="cls-27" x1="611.21" y1="425.72" x2="622.04" y2="417.47"/><path class="cls-26" d="M612.82,450.18l-37.7-35.09S581.87,454.54,612.82,450.18Z"/><path class="cls-26" d="M612.82,450.18l-37.7-35.09S615,419,612.82,450.18Z"/><line class="cls-27" x1="600.32" y1="438.55" x2="601.6" y2="425"/><path class="cls-25" d="M614.93,450.42,594,403.37S584.75,442.3,614.93,450.42Z"/><path class="cls-25" d="M614.93,450.42,594,403.37S629.12,422.57,614.93,450.42Z"/><line class="cls-27" x1="608" y1="434.82" x2="614.49" y2="422.85"/><path class="cls-26" d="M610.56,450.18l37.69-35.09S641.51,454.54,610.56,450.18Z"/><path class="cls-26" d="M610.56,450.18l37.69-35.09S608.43,419,610.56,450.18Z"/><line class="cls-27" x1="623.05" y1="438.55" x2="621.78" y2="425"/><path class="cls-25" d="M608.44,450.42l20.93-47.05S638.63,442.3,608.44,450.42Z"/><path class="cls-25" d="M608.44,450.42l20.93-47.05S594.26,422.57,608.44,450.42Z"/><path class="cls-4" d="M584.05,458a11.44,11.44,0,0,1,11.4-10.68,11.3,11.3,0,0,1,4.09.76,15.33,15.33,0,0,1,29,4.88,9.42,9.42,0,0,1,14.27,5Z"/><path class="cls-26" d="M507.26,350.75l.19-39.11S488.89,335.71,507.26,350.75Z"/><path class="cls-26" d="M507.26,350.75l.19-39.11S525.77,335.89,507.26,350.75Z"/><line class="cls-28" x1="507.32" y1="337.79" x2="515.55" y2="331.52"/><path class="cls-26" d="M508.54,356.36l-28.63-26.64S485,359.68,508.54,356.36Z"/><path class="cls-26" d="M508.54,356.36l-28.63-26.64S510.16,332.68,508.54,356.36Z"/><line class="cls-28" x1="499.05" y1="347.53" x2="500.02" y2="337.24"/><path class="cls-25" d="M510.15,356.55l-15.89-35.74S487.23,350.38,510.15,356.55Z"/><path class="cls-25" d="M510.15,356.55l-15.89-35.74S520.93,335.39,510.15,356.55Z"/><line class="cls-28" x1="504.88" y1="344.7" x2="509.81" y2="335.61"/><path class="cls-26" d="M506.83,356.36l28.63-26.64S530.34,359.68,506.83,356.36Z"/><path class="cls-26" d="M506.83,356.36l28.63-26.64S505.21,332.68,506.83,356.36Z"/><line class="cls-28" x1="516.32" y1="347.53" x2="515.35" y2="337.24"/><path class="cls-25" d="M505.22,356.55l15.89-35.74S528.14,350.38,505.22,356.55Z"/><path class="cls-25" d="M505.22,356.55l15.89-35.74S494.45,335.39,505.22,356.55Z"/><path class="cls-4" d="M486.7,362.32a8.66,8.66,0,0,1,11.76-7.53,11.64,11.64,0,0,1,22,3.7,7.15,7.15,0,0,1,10.83,3.83Z"/><path class="cls-26" d="M390.9,297.68l.13-26.57S378.42,287.46,390.9,297.68Z"/><path class="cls-26" d="M390.9,297.68l.13-26.57S403.47,287.59,390.9,297.68Z"/><line class="cls-29" x1="390.94" y1="288.88" x2="396.53" y2="284.62"/><path class="cls-26" d="M391.77,301.5l-19.45-18.11S375.8,303.75,391.77,301.5Z"/><path class="cls-26" d="M391.77,301.5l-19.45-18.11S392.87,285.41,391.77,301.5Z"/><line class="cls-29" x1="385.32" y1="295.5" x2="385.98" y2="288.5"/><path class="cls-25" d="M392.86,301.62l-10.8-24.28S377.29,297.43,392.86,301.62Z"/><path class="cls-25" d="M392.86,301.62l-10.8-24.28S400.18,287.25,392.86,301.62Z"/><line class="cls-29" x1="389.28" y1="293.57" x2="392.63" y2="287.4"/><path class="cls-26" d="M390.6,301.5l19.45-18.11S406.57,303.75,390.6,301.5Z"/><path class="cls-26" d="M390.6,301.5l19.45-18.11S389.5,285.41,390.6,301.5Z"/><line class="cls-29" x1="397.05" y1="295.5" x2="396.39" y2="288.5"/><path class="cls-25" d="M389.51,301.62l10.8-24.28S405.08,297.43,389.51,301.62Z"/><path class="cls-25" d="M389.51,301.62l10.8-24.28S382.19,287.25,389.51,301.62Z"/><path class="cls-4" d="M376.93,305.54a5.89,5.89,0,0,1,8-5.12,7.91,7.91,0,0,1,15,2.52,4.86,4.86,0,0,1,7.36,2.6Z"/><path class="cls-26" d="M170.19,303.13l.14-26.57S157.72,292.91,170.19,303.13Z"/><path class="cls-26" d="M170.19,303.13l.14-26.57S182.77,293,170.19,303.13Z"/><line class="cls-29" x1="170.24" y1="294.32" x2="175.83" y2="290.07"/><path class="cls-26" d="M171.07,306.94l-19.45-18.1S155.1,309.19,171.07,306.94Z"/><path class="cls-26" d="M171.07,306.94l-19.45-18.1S172.17,290.85,171.07,306.94Z"/><line class="cls-29" x1="164.62" y1="300.94" x2="165.28" y2="293.95"/><path class="cls-25" d="M172.16,307.06l-10.8-24.27S156.59,302.87,172.16,307.06Z"/><path class="cls-25" d="M172.16,307.06l-10.8-24.27S179.48,292.69,172.16,307.06Z"/><line class="cls-29" x1="168.58" y1="299.02" x2="171.93" y2="292.84"/><path class="cls-26" d="M169.9,306.94l19.45-18.1S185.87,309.19,169.9,306.94Z"/><path class="cls-26" d="M169.9,306.94l19.45-18.1S168.8,290.85,169.9,306.94Z"/><line class="cls-29" x1="176.35" y1="300.94" x2="175.69" y2="293.95"/><path class="cls-25" d="M168.81,307.06l10.8-24.27S184.38,302.87,168.81,307.06Z"/><path class="cls-25" d="M168.81,307.06l10.8-24.27S161.49,292.69,168.81,307.06Z"/><path class="cls-4" d="M156.23,311a5.87,5.87,0,0,1,8-5.12,7.91,7.91,0,0,1,15,2.52,4.75,4.75,0,0,1,2.71-.83,4.87,4.87,0,0,1,4.65,3.43Z"/><path class="cls-26" d="M71.83,279.23l.1-21.31S61.82,271,71.83,279.23Z"/><path class="cls-26" d="M71.83,279.23l.1-21.31S81.92,271.13,71.83,279.23Z"/><line class="cls-30" x1="71.86" y1="272.17" x2="76.35" y2="268.75"/><path class="cls-26" d="M72.53,282.29,56.92,267.77S59.71,284.1,72.53,282.29Z"/><path class="cls-26" d="M72.53,282.29,56.92,267.77S73.41,269.38,72.53,282.29Z"/><line class="cls-30" x1="67.35" y1="277.48" x2="67.88" y2="271.87"/><path class="cls-25" d="M73.4,282.39l-8.66-19.48S60.91,279,73.4,282.39Z"/><path class="cls-25" d="M73.4,282.39l-8.66-19.48S79.28,270.86,73.4,282.39Z"/><line class="cls-30" x1="70.53" y1="275.93" x2="73.22" y2="270.98"/><path class="cls-26" d="M71.59,282.29,87.2,267.77S84.4,284.1,71.59,282.29Z"/><path class="cls-26" d="M71.59,282.29,87.2,267.77S70.71,269.38,71.59,282.29Z"/><line class="cls-30" x1="76.76" y1="277.48" x2="76.24" y2="271.87"/><path class="cls-25" d="M70.72,282.39l8.66-19.48S83.21,279,70.72,282.39Z"/><path class="cls-25" d="M70.72,282.39l8.66-19.48S64.84,270.86,70.72,282.39Z"/><path class="cls-4" d="M60.62,285.54A4.74,4.74,0,0,1,67,281.43a6.35,6.35,0,0,1,12,2,3.91,3.91,0,0,1,5.91,2.09Z"/><path class="cls-26" d="M298,350.75l.2-39.11S279.62,335.71,298,350.75Z"/><path class="cls-26" d="M298,350.75l.2-39.11S316.5,335.89,298,350.75Z"/><line class="cls-28" x1="298.05" y1="337.79" x2="306.28" y2="331.52"/><path class="cls-26" d="M299.27,356.36l-28.63-26.64S275.76,359.68,299.27,356.36Z"/><path class="cls-26" d="M299.27,356.36l-28.63-26.64S300.89,332.68,299.27,356.36Z"/><line class="cls-28" x1="289.78" y1="347.53" x2="290.75" y2="337.24"/><path class="cls-25" d="M300.88,356.55,285,320.81S278,350.38,300.88,356.55Z"/><path class="cls-25" d="M300.88,356.55,285,320.81S311.65,335.39,300.88,356.55Z"/><line class="cls-28" x1="295.61" y1="344.7" x2="300.54" y2="335.61"/><path class="cls-26" d="M297.56,356.36l28.62-26.64S321.06,359.68,297.56,356.36Z"/><path class="cls-26" d="M297.56,356.36l28.62-26.64S295.93,332.68,297.56,356.36Z"/><line class="cls-28" x1="307.04" y1="347.53" x2="306.07" y2="337.24"/><path class="cls-25" d="M296,356.55l15.89-35.74S318.87,350.38,296,356.55Z"/><path class="cls-25" d="M296,356.55l15.89-35.74S285.17,335.39,296,356.55Z"/><path class="cls-4" d="M277.42,362.32a8.68,8.68,0,0,1,8.66-8.11,8.58,8.58,0,0,1,3.1.58,11.65,11.65,0,0,1,22,3.7A7.15,7.15,0,0,1,322,362.32Z"/><path class="cls-31" d="M679.6,489.84s232.89-41.92,360.4-33.28"/><path class="cls-3" d="M328.41,154.5H551.88s-.85-10.56-18.59-9.71c-.84-17.32-25.35-27.88-41.4-13.94,11.83-29.15,4.65-50.69-15.63-52.81s-33.79,19-37.6,32.11c-12.25-13.1-14.78-2.11-15.2,0-18.59-20.28-43.51-13.52-51.12-5.49s-5.91,27-5.91,27-26.61-11.4-32.53.85S338.55,149,338.55,149,329.68,147.32,328.41,154.5Z"/><path class="cls-3" d="M155.54,107.4H72.18s.31-3.94,6.93-3.63c.32-6.46,9.46-10.4,15.45-5.2-4.42-10.87-1.74-18.91,5.83-19.7s12.6,7.1,14,12c4.57-4.88,5.52-.79,5.68,0,6.93-7.56,16.23-5,19.06-2s2.21,10.09,2.21,10.09,9.93-4.26,12.13.31-1.73,6.15-1.73,6.15S155.07,104.72,155.54,107.4Z"/><path class="cls-3" d="M1006.93,339.88H936.7s.27-3.32,5.84-3.06c.27-5.44,8-8.76,13-4.38-3.71-9.16-1.46-15.93,4.91-16.59s10.62,6,11.82,10.09c3.85-4.12,4.64-.67,4.78,0,5.84-6.38,13.67-4.25,16.06-1.73s1.86,8.5,1.86,8.5,8.36-3.59,10.22.26-1.46,5.18-1.46,5.18S1006.53,337.62,1006.93,339.88Z"/><path class="cls-6" d="M725,500h315V480.76C929.49,475.27,791.93,491,725,500Z"/></g></g></svg>